<?xml version="1.0" standalone="no"?>
<!DOCTYPE svg PUBLIC "-//W3C//DTD SVG 20010904//EN"
 "http://www.w3.org/TR/2001/REC-SVG-20010904/DTD/svg10.dtd">
<svg version="1.0" xmlns="http://www.w3.org/2000/svg"
 width="300.000000pt" height="47.000000pt" viewBox="0 0 300.000000 47.000000"
 preserveAspectRatio="xMidYMid meet">
<metadata>
Created by potrace 1.10, written by Peter Selinger 2001-2011
</metadata>
<g transform="translate(0.000000,47.000000) scale(0.100000,-0.100000)"
fill="#000000" stroke="none">
<path d="M1393 370 c-3 -12 -22 -25 -54 -35 -27 -9 -49 -21 -49 -26 0 -14 92
-263 101 -273 4 -5 30 -1 58 10 49 17 53 17 102 0 28 -11 54 -15 58 -10 9 10
101 259 101 273 0 5 -22 17 -49 26 -32 10 -51 23 -54 35 -5 18 -14 20 -107 20
-93 0 -102 -2 -107 -20z m172 -31 l35 -31 0 -109 0 -109 -74 0 c-73 0 -76 1
-100 33 -23 31 -26 43 -26 123 0 49 4 94 8 101 4 6 32 13 62 16 30 2 56 4 57
5 1 1 18 -12 38 -29z m-185 -36 c0 -10 1 -57 3 -105 2 -93 -5 -95 -25 -8 -6
30 -18 65 -26 78 -8 12 -12 26 -8 30 4 3 11 1 15 -7 6 -9 10 -7 14 8 6 25 27
28 27 4z m272 5 l24 -13 -27 -80 c-15 -44 -28 -75 -28 -70 -7 68 -7 175 -1
175 4 0 19 -6 32 -12z"/>
<path d="M1436 294 c-9 -8 -15 -25 -15 -37 1 -21 2 -21 6 -2 8 33 74 57 89 33
4 -6 3 -9 -2 -6 -5 4 -10 -5 -10 -18 -1 -15 5 -25 18 -30 12 -3 17 -11 14 -20
-3 -9 -1 -12 4 -9 6 3 10 -3 10 -14 0 -11 -5 -23 -12 -27 -7 -5 -8 -3 -3 6 5
9 4 11 -4 6 -6 -4 -9 -12 -5 -17 4 -7 -5 -9 -22 -7 -22 2 -29 9 -30 26 -1 12
5 22 12 22 8 0 14 5 14 11 0 6 -7 9 -15 5 -8 -3 -21 1 -29 10 -9 9 -17 10 -21
4 -3 -6 1 -13 10 -16 12 -5 15 -14 10 -31 -12 -48 53 -70 93 -33 29 27 28 56
-3 84 -18 17 -21 26 -13 34 18 18 -9 42 -48 42 -18 0 -40 -7 -48 -16z"/>
<path d="M577 284 c-4 -4 -72 -6 -151 -5 -123 1 -147 -1 -161 -16 -10 -9 -15
-26 -12 -40 2 -12 1 -23 -3 -23 -11 0 -29 -46 -22 -56 11 -16 97 -15 118 0 12
9 19 26 19 48 0 29 3 33 28 33 31 1 33 -8 12 -49 -8 -15 -13 -32 -10 -36 3 -5
56 -8 118 -7 l112 2 6 30 c4 17 7 22 8 13 0 -10 13 -25 27 -35 21 -13 32 -15
55 -6 16 6 31 7 34 3 3 -5 95 -8 205 -7 187 2 201 3 220 23 29 28 37 86 16
107 -14 14 -40 16 -161 16 -86 -1 -148 -5 -151 -11 -4 -7 -9 -7 -13 0 -3 6
-40 11 -81 12 -105 2 -107 2 -124 -15 -14 -14 -17 -14 -36 5 -20 20 -41 26
-53 14z m-207 -36 c0 -22 -8 -23 -32 -1 -13 12 -22 13 -29 6 -8 -8 -4 -16 15
-28 34 -22 35 -62 3 -70 -28 -7 -77 -2 -78 8 -2 22 11 31 21 15 11 -18 40 -25
40 -10 0 5 -9 17 -20 27 -41 37 -18 77 42 73 29 -2 38 -7 38 -20z m160 2 c0
-24 -15 -27 -24 -4 -10 25 -23 8 -36 -46 -9 -40 -16 -50 -32 -50 -21 0 -22 6
-2 86 l7 29 -22 -19 c-23 -21 -35 -18 -25 8 5 12 20 16 70 16 57 0 64 -2 64
-20z m98 -8 c2 -12 -2 -38 -8 -57 -12 -37 -39 -46 -70 -24 -13 9 -12 10 3 5 9
-3 17 -1 17 4 0 16 -30 11 -36 -5 -4 -8 -12 -15 -20 -15 -13 0 -3 22 43 98 19
31 67 27 71 -6z m157 9 c3 -7 3 -16 0 -19 -3 -3 -5 1 -5 9 0 12 -2 12 -10 -1
-7 -12 -11 -12 -28 3 -23 21 -38 8 -48 -40 -7 -35 9 -51 32 -32 8 6 18 9 21 5
11 -10 -18 -26 -47 -26 -34 0 -50 17 -50 52 0 44 31 68 85 66 28 -2 47 -8 50
-17z m67 7 c-7 -7 -12 -18 -12 -26 0 -9 11 -5 31 13 31 25 51 29 50 10 0 -6
-10 -12 -23 -16 -18 -4 -22 -11 -19 -30 1 -13 7 -32 12 -41 8 -15 5 -18 -16
-18 -15 0 -25 6 -25 14 0 24 -21 30 -27 7 -3 -13 -13 -21 -28 -21 -22 0 -22 0
-6 60 15 56 17 60 45 60 23 0 27 -3 18 -12z m208 -2 c0 -22 -19 -30 -26 -12
-5 14 -34 24 -34 12 0 -2 -3 -12 -7 -21 -5 -14 -2 -16 15 -11 17 6 19 3 15
-14 -4 -14 -11 -19 -23 -15 -12 4 -19 -1 -23 -15 -4 -15 0 -20 14 -20 10 0 19
5 19 10 0 6 7 10 15 10 9 0 12 -6 9 -15 -5 -11 -21 -15 -60 -15 -43 0 -56 4
-68 22 -18 25 -22 63 -6 53 6 -4 18 -1 27 7 15 11 16 11 10 -5 -4 -11 -9 -31
-12 -45 -5 -26 -5 -26 9 3 9 17 15 42 16 58 0 26 2 27 55 27 41 0 55 -4 55
-14z m120 -6 c16 -16 18 -24 9 -50 -14 -38 -36 -50 -93 -50 l-45 0 14 41 c8
23 15 50 15 60 0 27 72 27 100 -1z m-664 -30 c19 0 0 -42 -28 -59 -17 -11 -19
-10 -14 6 3 10 8 31 12 48 4 16 9 24 12 17 2 -6 10 -12 18 -12z m253 -5 c13 7
14 -14 2 -33 -7 -11 -9 -11 -14 2 -6 14 -10 14 -26 4 -27 -16 -34 -7 -21 27
10 26 11 27 30 10 10 -9 24 -14 29 -10z"/>
<path d="M563 233 c-3 -10 -8 -21 -10 -25 -2 -5 3 -8 12 -8 11 0 15 5 11 16
-3 8 -2 12 4 9 6 -3 10 1 10 9 0 22 -19 20 -27 -1z"/>
<path d="M1125 248 c-20 -60 -23 -88 -10 -88 19 0 35 32 35 69 0 31 -17 43
-25 19z"/>
<path d="M2140 283 c-8 -3 -22 -12 -31 -20 -14 -12 -18 -11 -29 2 -10 12 -36
15 -126 15 -110 0 -114 -1 -130 -25 -8 -13 -13 -29 -9 -35 3 -5 -1 -17 -10
-26 -9 -9 -15 -26 -13 -37 2 -17 11 -21 48 -23 24 -1 52 2 61 6 9 6 20 5 26
-1 6 -6 26 -9 44 -7 29 2 34 7 32 26 -2 16 2 22 16 22 11 0 26 3 35 6 10 4 16
1 16 -8 0 -41 67 -61 107 -33 18 13 22 13 26 0 5 -10 24 -14 77 -13 78 0 95
13 79 55 -9 24 -8 25 39 39 15 4 15 1 -3 -43 -21 -50 -19 -55 22 -51 36 3 38
5 46 48 5 25 10 46 12 48 1 1 15 -2 30 -8 25 -9 26 -12 12 -23 -9 -7 -18 -23
-19 -36 -3 -22 1 -24 50 -27 42 -3 56 0 73 17 13 13 19 29 16 40 -3 11 1 32 8
46 8 15 12 30 9 34 -7 12 -272 10 -279 -2 -5 -7 -11 -6 -20 1 -7 6 -37 10 -67
8 -44 -2 -53 -6 -50 -20 2 -10 -2 -18 -8 -18 -5 0 -10 7 -10 15 0 9 -12 20
-26 25 -28 11 -32 11 -54 3z m-208 -35 c-5 -22 -16 -23 -32 -3 -7 8 -16 15
-21 15 -17 0 -9 -21 19 -45 22 -20 25 -27 16 -42 -16 -26 -104 -27 -104 -1 0
21 11 23 29 6 11 -11 12 -10 6 1 -5 10 -4 12 4 7 6 -4 9 -12 6 -17 -4 -5 -2
-9 4 -9 22 0 19 19 -4 34 -48 32 -23 76 41 73 34 -1 40 -4 36 -19z m132 9 c27
-20 6 -54 -39 -63 -32 -6 -40 -14 -36 -36 0 -5 -10 -8 -24 -8 -29 0 -30 4 -10
60 17 50 18 53 6 46 -5 -3 -12 -23 -16 -43 -6 -31 -8 -34 -16 -20 -8 13 -5 25
11 47 18 25 28 30 64 30 23 0 50 -6 60 -13z m134 4 c15 -9 18 -36 8 -71 -6
-20 -5 -22 4 -10 9 12 11 12 8 1 -2 -8 -11 -16 -19 -17 -7 -2 -25 -6 -37 -10
-24 -7 -24 -7 -8 24 18 34 21 82 6 82 -15 0 -31 -38 -33 -76 -2 -36 -17 -44
-37 -19 -16 20 -3 71 23 90 23 16 64 19 85 6z m146 3 c20 -8 21 -40 2 -47 -12
-5 -13 -13 -6 -36 8 -29 7 -31 -16 -31 -19 0 -24 5 -24 26 0 31 -23 28 -28 -4
-2 -16 -10 -22 -28 -22 -19 0 -24 4 -20 18 2 9 10 36 17 60 12 40 14 42 50 42
20 0 44 -3 53 -6z m176 -7 c0 -23 -13 -28 -30 -12 -15 14 -18 10 -34 -40 -13
-42 -22 -55 -37 -55 -10 0 -19 1 -19 3 0 1 7 24 15 51 17 57 13 67 -15 41 -16
-15 -20 -15 -20 -3 0 24 10 28 77 28 46 0 63 -4 63 -13z m120 6 c0 -1 -3 -8
-6 -17 -5 -14 -8 -14 -29 0 -15 10 -25 11 -29 5 -4 -6 5 -18 19 -27 29 -19 34
-60 8 -68 -23 -7 -93 -5 -93 3 0 3 5 13 10 21 9 13 12 13 21 -2 10 -18 39 -25
39 -10 0 5 -11 18 -25 30 -46 40 -23 73 47 69 21 -1 38 -3 38 -4z"/>
<path d="M2013 241 c3 -11 1 -19 -4 -15 -5 3 -9 -2 -9 -10 0 -10 6 -13 15 -10
8 4 15 12 15 20 0 8 0 17 1 21 0 4 -5 9 -12 12 -8 2 -10 -3 -6 -18z"/>
</g>
</svg>
