<?xml version="1.0" standalone="no"?>
<!DOCTYPE svg PUBLIC "-//W3C//DTD SVG 20010904//EN"
 "http://www.w3.org/TR/2001/REC-SVG-20010904/DTD/svg10.dtd">
<svg version="1.0" xmlns="http://www.w3.org/2000/svg"
 width="160.000000pt" height="160.000000pt" viewBox="0 0 160.000000 160.000000"
 preserveAspectRatio="xMidYMid meet">
<metadata>
Created by potrace 1.10, written by Peter Selinger 2001-2011
</metadata>
<g transform="translate(0.000000,160.000000) scale(0.050000,-0.050000)"
fill="#ffff9d" stroke="none">
<path d="M0 1600 l0 -1600 1600 0 1600 0 0 1600 0 1600 -1600 0 -1600 0 0
-1600z m2375 1033 c36 -37 65 -78 65 -91 0 -34 -125 -181 -154 -182 -13 0 -30
-10 -38 -23 -9 -15 -5 -18 14 -9 15 8 10 1 -12 -16 -60 -47 -336 -305 -471
-441 -66 -65 -119 -110 -119 -100 0 11 -12 -3 -27 -31 -14 -27 -37 -48 -50
-45 -12 3 -23 -8 -23 -25 0 -16 -8 -30 -18 -30 -10 0 -74 -54 -142 -120 -68
-66 -131 -120 -141 -120 -9 0 -22 -18 -29 -40 -8 -27 -30 -40 -66 -40 -42 -1
-47 -5 -24 -20 21 -14 23 -19 4 -20 -47 0 -204 151 -204 197 0 16 21 47 46 71
251 228 303 280 299 296 -4 11 2 14 12 8 9 -6 61 36 114 94 54 57 100 102 103
99 3 -3 6 0 6 5 0 6 33 40 73 75 41 36 127 119 191 184 64 66 116 113 116 106
0 -8 21 6 46 31 26 24 43 51 39 59 -4 8 1 15 11 15 10 0 58 40 106 88 113 114
181 120 273 25z m-857 -78 c98 -99 120 -162 75 -211 -17 -19 -50 -54 -72 -79
-62 -69 -248 -65 -314 6 -67 73 -66 205 3 265 28 24 50 39 50 33 0 -6 20 8 44
30 66 62 121 50 214 -44z m622 -579 c0 -10 9 -13 20 -6 11 7 20 3 20 -9 0 -11
12 -21 26 -21 14 0 36 -28 49 -62 27 -72 42 -54 -503 -568 -151 -143 -333
-316 -403 -385 -70 -69 -138 -125 -152 -125 -13 0 -18 -5 -12 -12 14 -14 -186
-207 -216 -208 -12 0 -59 42 -105 93 -80 89 -106 147 -65 147 27 0 121 90 121
116 0 12 18 27 40 34 22 7 40 26 40 41 0 16 10 29 23 29 26 0 137 117 137 144
0 9 14 16 30 16 17 0 30 14 30 30 0 17 7 30 16 30 9 0 68 49 133 109 64 61
133 115 154 122 21 7 32 20 26 31 -6 10 2 24 19 30 60 23 475 408 441 408 -10
0 -7 8 8 18 36 23 123 22 123 -2z"/>
</g>
</svg>
