<svg id="svg" version="1.1" xmlns="http://www.w3.org/2000/svg" xmlns:xlink="http://www.w3.org/1999/xlink" width="400" height="400" viewBox="0, 0, 400,400"><g id="svgg"><path id="path0" d="M166.600 112.836 C 143.642 113.227,118.747 114.273,110.029 115.213 C 93.004 117.048,82.912 126.324,79.146 143.600 C 78.930 144.590,78.580 146.210,78.368 147.200 C 75.833 159.029,74.440 204.834,75.928 227.400 C 76.705 239.193,76.755 239.841,77.209 244.200 C 77.891 250.741,78.296 253.042,79.658 258.100 C 83.039 270.663,88.631 277.776,98.100 281.560 C 107.244 285.213,119.574 286.154,172.600 287.240 C 218.986 288.191,283.146 286.466,295.400 283.938 C 311.839 280.546,320.626 267.918,322.772 244.600 C 324.432 226.562,324.811 218.308,324.809 200.200 C 324.808 181.777,324.425 173.363,322.772 155.400 C 320.411 129.754,310.361 117.386,290.125 115.227 C 270.482 113.131,213.765 112.033,166.600 112.836 M173.800 160.017 C 174.900 160.552,175.890 161.086,176.000 161.205 C 176.110 161.324,178.180 162.404,180.600 163.606 C 183.020 164.807,186.350 166.527,188.000 167.428 C 189.650 168.329,194.600 170.926,199.000 173.201 C 203.400 175.475,208.260 177.996,209.800 178.803 C 212.468 180.201,219.418 183.821,229.000 188.806 C 231.420 190.065,235.560 192.232,238.200 193.621 C 240.840 195.010,243.404 196.339,243.897 196.574 C 245.705 197.433,245.149 197.798,231.315 204.830 C 227.842 206.596,224.829 208.211,224.620 208.420 C 224.411 208.629,223.931 208.800,223.553 208.800 C 223.176 208.800,222.807 208.935,222.733 209.100 C 222.660 209.265,221.520 209.952,220.200 210.627 C 217.800 211.853,209.096 216.357,197.800 222.216 C 194.500 223.928,189.380 226.571,186.421 228.091 C 183.463 229.610,178.855 232.007,176.180 233.418 C 173.506 234.829,171.201 235.868,171.059 235.725 C 170.722 235.389,170.720 159.414,171.056 159.078 C 171.196 158.937,171.421 158.872,171.556 158.933 C 171.690 158.994,172.700 159.482,173.800 160.017 " stroke="none" fill="#fbfbfb" fill-rule="evenodd"></path><path id="path1" d="M178.500 0.275 C 176.465 0.360,174.800 0.603,174.800 0.815 C 174.800 1.027,173.551 1.200,172.024 1.200 C 170.497 1.200,169.136 1.380,169.000 1.600 C 168.864 1.820,167.773 2.000,166.576 2.000 C 165.379 2.000,164.400 2.180,164.400 2.400 C 164.400 2.620,163.511 2.800,162.424 2.800 C 161.337 2.800,160.336 2.980,160.200 3.200 C 160.064 3.420,159.254 3.600,158.400 3.600 C 157.546 3.600,156.736 3.780,156.600 4.000 C 156.464 4.220,155.553 4.400,154.576 4.400 C 153.599 4.400,152.800 4.580,152.800 4.800 C 152.800 5.020,152.181 5.200,151.424 5.200 C 150.667 5.200,149.936 5.380,149.800 5.600 C 149.664 5.820,148.944 6.000,148.200 6.000 C 147.456 6.000,146.736 6.180,146.600 6.400 C 146.464 6.620,145.823 6.800,145.176 6.800 C 144.529 6.800,144.000 6.980,144.000 7.200 C 144.000 7.420,143.370 7.600,142.600 7.600 C 141.830 7.600,141.200 7.780,141.200 8.000 C 141.200 8.220,140.660 8.400,140.000 8.400 C 139.340 8.400,138.800 8.580,138.800 8.800 C 138.800 9.020,138.260 9.200,137.600 9.200 C 136.940 9.200,136.400 9.356,136.400 9.546 C 136.400 9.736,135.563 10.006,134.540 10.146 C 133.518 10.286,132.483 10.543,132.240 10.717 C 131.998 10.891,131.080 11.263,130.200 11.543 C 128.523 12.077,127.074 12.652,125.905 13.247 C 125.523 13.441,124.938 13.600,124.605 13.600 C 124.272 13.600,124.000 13.747,124.000 13.928 C 124.000 14.108,123.100 14.500,122.000 14.800 C 120.900 15.100,120.000 15.492,120.000 15.672 C 120.000 15.853,119.640 16.000,119.200 16.000 C 118.760 16.000,118.400 16.180,118.400 16.400 C 118.400 16.620,118.051 16.800,117.624 16.800 C 117.197 16.800,116.736 16.980,116.600 17.200 C 116.464 17.420,116.003 17.600,115.576 17.600 C 115.149 17.600,114.800 17.780,114.800 18.000 C 114.800 18.220,114.566 18.400,114.280 18.400 C 113.544 18.400,111.607 19.341,111.603 19.700 C 111.601 19.865,111.240 20.000,110.800 20.000 C 110.360 20.000,110.000 20.180,110.000 20.400 C 110.000 20.620,109.640 20.800,109.200 20.800 C 108.760 20.800,108.400 20.980,108.400 21.200 C 108.400 21.420,108.055 21.600,107.633 21.600 C 107.212 21.600,106.807 21.735,106.733 21.900 C 106.660 22.065,105.745 22.633,104.700 23.163 C 103.655 23.692,102.800 24.277,102.800 24.463 C 102.800 24.648,102.440 24.800,102.000 24.800 C 101.560 24.800,101.200 24.980,101.200 25.200 C 101.200 25.420,100.840 25.600,100.400 25.600 C 99.960 25.600,99.600 25.780,99.600 26.000 C 99.600 26.220,99.330 26.400,99.000 26.400 C 98.670 26.400,98.400 26.560,98.400 26.757 C 98.400 26.953,97.932 27.231,97.360 27.374 C 96.487 27.593,94.324 28.874,93.600 29.601 C 93.490 29.711,92.905 30.056,92.300 30.368 C 91.695 30.680,91.200 31.085,91.200 31.268 C 91.200 31.450,90.880 31.600,90.488 31.600 C 90.097 31.600,89.517 31.960,89.200 32.400 C 88.883 32.840,88.343 33.200,88.000 33.200 C 87.657 33.200,87.117 33.560,86.800 34.000 C 86.483 34.440,86.020 34.800,85.771 34.800 C 85.522 34.800,84.754 35.340,84.063 36.000 C 83.372 36.660,82.575 37.200,82.292 37.200 C 82.009 37.200,81.517 37.560,81.200 38.000 C 80.883 38.440,80.428 38.800,80.190 38.800 C 79.951 38.800,79.046 39.434,78.178 40.208 C 77.310 40.983,76.109 42.056,75.509 42.593 C 74.909 43.130,73.903 43.836,73.273 44.162 C 72.643 44.488,71.231 45.620,70.136 46.677 C 69.041 47.735,67.527 49.043,66.772 49.584 C 66.017 50.125,64.230 51.793,62.800 53.291 C 60.199 56.016,58.934 57.286,52.590 63.544 C 50.726 65.384,49.200 67.028,49.200 67.199 C 49.200 67.369,48.199 68.564,46.975 69.854 C 45.751 71.144,44.485 72.699,44.160 73.309 C 43.835 73.919,43.130 74.909,42.593 75.509 C 42.056 76.109,40.983 77.310,40.208 78.178 C 39.434 79.046,38.800 79.951,38.800 80.190 C 38.800 80.428,38.440 80.883,38.000 81.200 C 37.560 81.517,37.200 81.962,37.199 82.188 C 37.199 82.415,36.659 83.230,36.000 84.000 C 35.341 84.770,34.801 85.585,34.801 85.812 C 34.800 86.038,34.440 86.483,34.000 86.800 C 33.560 87.117,33.200 87.657,33.200 88.000 C 33.200 88.343,32.840 88.883,32.400 89.200 C 31.960 89.517,31.600 90.097,31.600 90.488 C 31.600 90.880,31.450 91.200,31.268 91.200 C 31.085 91.200,30.680 91.695,30.368 92.300 C 30.056 92.905,29.711 93.490,29.601 93.600 C 29.058 94.141,27.695 96.383,26.990 97.895 C 26.556 98.828,26.065 99.593,25.900 99.595 C 25.735 99.598,25.600 99.960,25.600 100.400 C 25.600 100.840,25.420 101.200,25.200 101.200 C 24.980 101.200,24.800 101.478,24.800 101.817 C 24.800 102.156,24.440 102.820,24.000 103.292 C 23.560 103.764,23.200 104.387,23.200 104.675 C 23.200 104.964,23.020 105.200,22.800 105.200 C 22.580 105.200,22.400 105.560,22.400 106.000 C 22.400 106.440,22.220 106.800,22.000 106.800 C 21.780 106.800,21.600 107.160,21.600 107.600 C 21.600 108.040,21.420 108.400,21.200 108.400 C 20.980 108.400,20.800 108.760,20.800 109.200 C 20.800 109.640,20.620 110.000,20.400 110.000 C 20.180 110.000,20.000 110.360,20.000 110.800 C 20.000 111.240,19.865 111.601,19.700 111.603 C 19.341 111.607,18.400 113.544,18.400 114.280 C 18.400 114.566,18.220 114.800,18.000 114.800 C 17.780 114.800,17.600 115.149,17.600 115.576 C 17.600 116.003,17.420 116.464,17.200 116.600 C 16.980 116.736,16.800 117.197,16.800 117.624 C 16.800 118.051,16.620 118.400,16.400 118.400 C 16.180 118.400,16.000 118.760,16.000 119.200 C 16.000 119.640,15.820 120.000,15.600 120.000 C 15.380 120.000,15.200 120.349,15.200 120.776 C 15.200 121.203,15.020 121.664,14.800 121.800 C 14.580 121.936,14.400 122.487,14.400 123.024 C 14.400 123.561,14.220 124.000,14.000 124.000 C 13.780 124.000,13.600 124.272,13.600 124.605 C 13.600 124.938,13.441 125.523,13.247 125.905 C 12.044 128.270,10.355 133.027,10.125 134.700 C 9.997 135.635,9.736 136.400,9.546 136.400 C 9.356 136.400,9.200 136.940,9.200 137.600 C 9.200 138.260,9.020 138.800,8.800 138.800 C 8.580 138.800,8.400 139.340,8.400 140.000 C 8.400 140.660,8.220 141.200,8.000 141.200 C 7.780 141.200,7.600 141.830,7.600 142.600 C 7.600 143.370,7.420 144.000,7.200 144.000 C 6.980 144.000,6.800 144.630,6.800 145.400 C 6.800 146.170,6.620 146.800,6.400 146.800 C 6.180 146.800,6.000 147.430,6.000 148.200 C 6.000 148.970,5.820 149.600,5.600 149.600 C 5.380 149.600,5.200 150.320,5.200 151.200 C 5.200 152.080,5.020 152.800,4.800 152.800 C 4.580 152.800,4.400 153.599,4.400 154.576 C 4.400 155.553,4.220 156.464,4.000 156.600 C 3.780 156.736,3.600 157.557,3.600 158.424 C 3.600 159.291,3.420 160.000,3.200 160.000 C 2.980 160.000,2.800 160.889,2.800 161.976 C 2.800 163.063,2.620 164.064,2.400 164.200 C 2.180 164.336,2.000 165.416,2.000 166.600 C 2.000 167.784,1.820 168.864,1.600 169.000 C 1.380 169.136,1.200 170.482,1.200 171.990 C 1.200 173.829,1.035 174.788,0.700 174.900 C -0.032 175.144,-0.032 224.856,0.700 225.100 C 1.035 225.212,1.200 226.171,1.200 228.010 C 1.200 229.518,1.380 230.864,1.600 231.000 C 1.820 231.136,2.000 232.216,2.000 233.400 C 2.000 234.584,2.180 235.664,2.400 235.800 C 2.620 235.936,2.800 236.937,2.800 238.024 C 2.800 239.111,2.980 240.000,3.200 240.000 C 3.420 240.000,3.600 240.709,3.600 241.576 C 3.600 242.443,3.780 243.264,4.000 243.400 C 4.220 243.536,4.400 244.447,4.400 245.424 C 4.400 246.401,4.580 247.200,4.800 247.200 C 5.020 247.200,5.200 247.920,5.200 248.800 C 5.200 249.680,5.380 250.400,5.600 250.400 C 5.820 250.400,6.000 251.019,6.000 251.776 C 6.000 252.533,6.180 253.264,6.400 253.400 C 6.620 253.536,6.800 254.177,6.800 254.824 C 6.800 255.471,6.980 256.000,7.200 256.000 C 7.420 256.000,7.600 256.630,7.600 257.400 C 7.600 258.170,7.780 258.800,8.000 258.800 C 8.220 258.800,8.400 259.340,8.400 260.000 C 8.400 260.660,8.580 261.200,8.800 261.200 C 9.020 261.200,9.200 261.740,9.200 262.400 C 9.200 263.060,9.380 263.600,9.600 263.600 C 9.820 263.600,10.000 264.044,10.000 264.586 C 10.000 265.490,10.768 268.242,11.567 270.200 C 12.422 272.297,12.923 273.458,13.247 274.095 C 13.441 274.477,13.600 275.062,13.600 275.395 C 13.600 275.728,13.780 276.000,14.000 276.000 C 14.220 276.000,14.400 276.439,14.400 276.976 C 14.400 277.513,14.580 278.064,14.800 278.200 C 15.020 278.336,15.200 278.797,15.200 279.224 C 15.200 279.651,15.380 280.000,15.600 280.000 C 15.820 280.000,16.000 280.360,16.000 280.800 C 16.000 281.240,16.180 281.600,16.400 281.600 C 16.620 281.600,16.800 281.853,16.800 282.162 C 16.800 282.471,17.139 283.416,17.553 284.262 C 17.967 285.108,18.732 286.700,19.253 287.800 C 19.774 288.900,20.335 289.860,20.500 289.933 C 20.665 290.007,20.800 290.412,20.800 290.833 C 20.800 291.255,20.980 291.600,21.200 291.600 C 21.420 291.600,21.600 291.945,21.600 292.367 C 21.600 292.788,21.735 293.193,21.900 293.267 C 22.065 293.340,22.633 294.255,23.163 295.300 C 23.692 296.345,24.277 297.200,24.463 297.200 C 24.648 297.200,24.800 297.560,24.800 298.000 C 24.800 298.440,24.980 298.800,25.200 298.800 C 25.420 298.800,25.600 299.078,25.600 299.417 C 25.600 299.756,25.945 300.404,26.367 300.856 C 26.788 301.309,27.248 302.135,27.387 302.692 C 27.654 303.755,30.708 308.504,31.272 308.733 C 31.453 308.807,31.600 309.172,31.600 309.545 C 31.600 309.918,31.960 310.483,32.400 310.800 C 32.840 311.117,33.200 311.657,33.200 312.000 C 33.200 312.343,33.560 312.883,34.000 313.200 C 34.440 313.517,34.800 313.962,34.801 314.188 C 34.801 314.415,35.341 315.230,36.000 316.000 C 36.659 316.770,37.199 317.585,37.199 317.812 C 37.200 318.038,37.560 318.483,38.000 318.800 C 38.440 319.117,38.800 319.572,38.800 319.810 C 38.800 320.049,39.385 320.902,40.100 321.706 C 42.213 324.081,43.513 325.706,44.572 327.295 C 45.121 328.118,46.386 329.607,47.385 330.606 C 48.383 331.604,49.200 332.580,49.200 332.773 C 49.200 332.967,51.085 334.988,53.388 337.263 C 58.024 341.843,58.637 342.454,63.758 347.615 C 65.715 349.587,67.482 351.200,67.684 351.200 C 67.886 351.200,68.929 352.100,70.000 353.200 C 71.071 354.300,72.102 355.200,72.290 355.200 C 72.478 355.200,73.428 355.920,74.400 356.800 C 75.372 357.680,76.328 358.400,76.524 358.400 C 76.720 358.400,77.510 359.030,78.280 359.800 C 79.050 360.570,79.892 361.200,80.152 361.200 C 80.411 361.200,80.883 361.560,81.200 362.000 C 81.517 362.440,82.009 362.800,82.292 362.800 C 82.575 362.800,83.372 363.340,84.063 364.000 C 84.754 364.660,85.522 365.200,85.771 365.200 C 86.020 365.200,86.483 365.560,86.800 366.000 C 87.117 366.440,87.657 366.800,88.000 366.800 C 88.343 366.800,88.883 367.160,89.200 367.600 C 89.517 368.040,90.057 368.400,90.400 368.400 C 90.743 368.400,91.283 368.760,91.600 369.200 C 91.917 369.640,92.414 370.000,92.705 370.000 C 92.996 370.000,93.589 370.331,94.023 370.736 C 94.458 371.141,95.305 371.720,95.907 372.024 C 96.508 372.327,97.757 373.079,98.681 373.694 C 99.606 374.309,100.911 374.922,101.581 375.056 C 102.252 375.190,102.800 375.457,102.800 375.650 C 102.800 375.843,103.070 376.000,103.400 376.000 C 103.730 376.000,104.000 376.146,104.000 376.325 C 104.000 376.504,104.630 376.898,105.400 377.200 C 106.170 377.502,106.800 377.896,106.800 378.075 C 106.800 378.254,107.160 378.400,107.600 378.400 C 108.040 378.400,108.400 378.580,108.400 378.800 C 108.400 379.020,108.760 379.200,109.200 379.200 C 109.640 379.200,110.000 379.380,110.000 379.600 C 110.000 379.820,110.360 380.000,110.800 380.000 C 111.240 380.000,111.600 380.180,111.600 380.400 C 111.600 380.620,111.960 380.800,112.400 380.800 C 112.840 380.800,113.200 380.980,113.200 381.200 C 113.200 381.420,113.549 381.600,113.976 381.600 C 114.403 381.600,114.864 381.780,115.000 382.000 C 115.136 382.220,115.597 382.400,116.024 382.400 C 116.451 382.400,116.800 382.580,116.800 382.800 C 116.800 383.020,117.160 383.200,117.600 383.200 C 118.040 383.200,118.400 383.380,118.400 383.600 C 118.400 383.820,118.760 384.000,119.200 384.000 C 119.640 384.000,120.000 384.180,120.000 384.400 C 120.000 384.620,120.349 384.800,120.776 384.800 C 121.203 384.800,121.664 384.980,121.800 385.200 C 121.936 385.420,122.487 385.600,123.024 385.600 C 123.561 385.600,124.000 385.780,124.000 386.000 C 124.000 386.220,124.360 386.400,124.800 386.400 C 125.240 386.400,125.600 386.580,125.600 386.800 C 125.600 387.020,126.039 387.200,126.576 387.200 C 127.113 387.200,127.664 387.380,127.800 387.600 C 127.936 387.820,128.487 388.000,129.024 388.000 C 129.561 388.000,130.000 388.180,130.000 388.400 C 130.000 388.620,130.362 388.800,130.805 388.800 C 131.248 388.800,131.923 388.976,132.305 389.191 C 133.508 389.868,139.174 391.600,140.185 391.600 C 140.717 391.600,141.264 391.780,141.400 392.000 C 141.536 392.220,142.177 392.400,142.824 392.400 C 143.471 392.400,144.000 392.580,144.000 392.800 C 144.000 393.020,144.630 393.200,145.400 393.200 C 146.170 393.200,146.800 393.380,146.800 393.600 C 146.800 393.820,147.419 394.000,148.176 394.000 C 148.933 394.000,149.664 394.180,149.800 394.400 C 149.936 394.620,150.667 394.800,151.424 394.800 C 152.181 394.800,152.800 394.980,152.800 395.200 C 152.800 395.420,153.599 395.600,154.576 395.600 C 155.553 395.600,156.464 395.780,156.600 396.000 C 156.736 396.220,157.546 396.400,158.400 396.400 C 159.254 396.400,160.064 396.580,160.200 396.800 C 160.336 397.020,161.337 397.200,162.424 397.200 C 163.511 397.200,164.400 397.380,164.400 397.600 C 164.400 397.822,165.467 398.000,166.800 398.000 C 168.133 398.000,169.200 398.178,169.200 398.400 C 169.200 398.628,170.389 398.800,171.967 398.800 C 173.824 398.800,174.788 398.964,174.900 399.300 C 175.144 400.032,224.856 400.032,225.100 399.300 C 225.212 398.964,226.176 398.800,228.033 398.800 C 229.611 398.800,230.800 398.628,230.800 398.400 C 230.800 398.178,231.859 398.000,233.176 398.000 C 234.483 398.000,235.664 397.820,235.800 397.600 C 235.936 397.380,236.937 397.200,238.024 397.200 C 239.111 397.200,240.000 397.020,240.000 396.800 C 240.000 396.580,240.720 396.400,241.600 396.400 C 242.480 396.400,243.200 396.220,243.200 396.000 C 243.200 395.780,244.100 395.600,245.200 395.600 C 246.300 395.600,247.200 395.420,247.200 395.200 C 247.200 394.980,247.920 394.800,248.800 394.800 C 249.680 394.800,250.400 394.620,250.400 394.400 C 250.400 394.180,251.019 394.000,251.776 394.000 C 252.533 394.000,253.264 393.820,253.400 393.600 C 253.536 393.380,254.177 393.200,254.824 393.200 C 255.471 393.200,256.000 393.020,256.000 392.800 C 256.000 392.580,256.630 392.400,257.400 392.400 C 258.170 392.400,258.800 392.243,258.800 392.052 C 258.800 391.860,259.741 391.578,260.890 391.426 C 262.040 391.273,263.165 391.013,263.390 390.846 C 263.616 390.680,264.610 390.314,265.600 390.033 C 266.590 389.752,267.713 389.360,268.095 389.161 C 268.477 388.962,269.062 388.800,269.395 388.800 C 269.728 388.800,270.000 388.620,270.000 388.400 C 270.000 388.180,270.439 388.000,270.976 388.000 C 271.513 388.000,272.064 387.820,272.200 387.600 C 272.336 387.380,272.887 387.200,273.424 387.200 C 273.961 387.200,274.400 387.020,274.400 386.800 C 274.400 386.580,274.760 386.400,275.200 386.400 C 275.640 386.400,276.000 386.220,276.000 386.000 C 276.000 385.780,276.439 385.600,276.976 385.600 C 277.513 385.600,278.064 385.420,278.200 385.200 C 278.336 384.980,278.797 384.800,279.224 384.800 C 279.651 384.800,280.000 384.620,280.000 384.400 C 280.000 384.180,280.360 384.000,280.800 384.000 C 281.240 384.000,281.600 383.820,281.600 383.600 C 281.600 383.380,281.960 383.200,282.400 383.200 C 282.840 383.200,283.200 383.020,283.200 382.800 C 283.200 382.580,283.535 382.400,283.944 382.400 C 284.746 382.400,289.713 379.995,289.933 379.500 C 290.007 379.335,290.412 379.200,290.833 379.200 C 291.255 379.200,291.600 379.020,291.600 378.800 C 291.600 378.580,291.960 378.400,292.400 378.400 C 292.840 378.400,293.200 378.220,293.200 378.000 C 293.200 377.780,293.478 377.600,293.817 377.600 C 294.156 377.600,294.820 377.240,295.292 376.800 C 295.764 376.360,296.387 376.000,296.675 376.000 C 296.964 376.000,297.200 375.820,297.200 375.600 C 297.200 375.380,297.479 375.200,297.820 375.200 C 298.442 375.200,300.825 374.102,301.200 373.644 C 301.310 373.509,301.940 373.134,302.600 372.810 C 304.261 371.995,308.571 369.127,308.733 368.728 C 308.807 368.547,309.172 368.400,309.545 368.400 C 309.918 368.400,310.483 368.040,310.800 367.600 C 311.117 367.160,311.657 366.800,312.000 366.800 C 312.343 366.800,312.883 366.440,313.200 366.000 C 313.517 365.560,314.009 365.200,314.292 365.200 C 314.575 365.200,315.372 364.660,316.063 364.000 C 316.754 363.340,317.522 362.800,317.771 362.800 C 318.020 362.800,318.483 362.440,318.800 362.000 C 319.117 361.560,319.572 361.200,319.810 361.200 C 320.049 361.200,320.931 360.570,321.772 359.800 C 322.613 359.030,323.423 358.400,323.572 358.400 C 323.721 358.400,324.531 357.770,325.372 357.000 C 326.213 356.230,327.054 355.600,327.242 355.600 C 327.429 355.600,328.573 354.610,329.783 353.400 C 330.993 352.190,332.157 351.200,332.371 351.200 C 332.584 351.200,334.703 349.230,337.079 346.821 C 342.316 341.514,341.514 342.316,346.821 337.079 C 349.230 334.703,351.200 332.584,351.200 332.371 C 351.200 332.157,352.190 330.993,353.400 329.783 C 354.610 328.573,355.600 327.429,355.600 327.242 C 355.600 327.054,356.230 326.213,357.000 325.372 C 357.770 324.531,358.400 323.721,358.400 323.572 C 358.400 323.423,359.030 322.613,359.800 321.772 C 360.570 320.931,361.200 320.049,361.200 319.810 C 361.200 319.572,361.560 319.117,362.000 318.800 C 362.440 318.483,362.800 318.038,362.801 317.812 C 362.801 317.585,363.341 316.770,364.000 316.000 C 364.659 315.230,365.199 314.415,365.199 314.188 C 365.200 313.962,365.560 313.517,366.000 313.200 C 366.440 312.883,366.800 312.343,366.800 312.000 C 366.800 311.657,367.160 311.117,367.600 310.800 C 368.040 310.483,368.400 309.918,368.400 309.545 C 368.400 309.172,368.547 308.807,368.728 308.733 C 369.127 308.571,371.995 304.261,372.810 302.600 C 373.134 301.940,373.509 301.310,373.644 301.200 C 374.032 300.882,375.200 298.484,375.200 298.003 C 375.200 297.763,375.560 297.180,376.000 296.708 C 376.440 296.236,376.800 295.613,376.800 295.325 C 376.800 295.036,376.980 294.800,377.200 294.800 C 377.420 294.800,377.600 294.440,377.600 294.000 C 377.600 293.560,377.780 293.200,378.000 293.200 C 378.220 293.200,378.400 292.840,378.400 292.400 C 378.400 291.960,378.580 291.600,378.800 291.600 C 379.020 291.600,379.200 291.255,379.200 290.833 C 379.200 290.412,379.336 290.007,379.502 289.933 C 379.668 289.860,380.407 288.540,381.144 287.000 C 381.881 285.460,382.645 283.887,382.842 283.505 C 383.039 283.123,383.200 282.538,383.200 282.205 C 383.200 281.872,383.380 281.600,383.600 281.600 C 383.820 281.600,384.000 281.240,384.000 280.800 C 384.000 280.360,384.180 280.000,384.400 280.000 C 384.620 280.000,384.800 279.651,384.800 279.224 C 384.800 278.797,384.980 278.336,385.200 278.200 C 385.420 278.064,385.600 277.513,385.600 276.976 C 385.600 276.439,385.780 276.000,386.000 276.000 C 386.220 276.000,386.400 275.640,386.400 275.200 C 386.400 274.760,386.580 274.400,386.800 274.400 C 387.020 274.400,387.200 274.038,387.200 273.595 C 387.200 273.152,387.359 272.477,387.553 272.095 C 388.426 270.380,389.350 267.953,390.026 265.600 C 390.311 264.610,390.680 263.616,390.846 263.390 C 391.013 263.165,391.273 262.040,391.426 260.890 C 391.578 259.741,391.860 258.800,392.052 258.800 C 392.243 258.800,392.400 258.170,392.400 257.400 C 392.400 256.630,392.580 256.000,392.800 256.000 C 393.020 256.000,393.200 255.471,393.200 254.824 C 393.200 254.177,393.380 253.536,393.600 253.400 C 393.820 253.264,394.000 252.533,394.000 251.776 C 394.000 251.019,394.180 250.400,394.400 250.400 C 394.620 250.400,394.800 249.680,394.800 248.800 C 394.800 247.920,394.980 247.200,395.200 247.200 C 395.420 247.200,395.600 246.401,395.600 245.424 C 395.600 244.447,395.780 243.536,396.000 243.400 C 396.220 243.264,396.400 242.443,396.400 241.576 C 396.400 240.709,396.580 240.000,396.800 240.000 C 397.020 240.000,397.200 239.111,397.200 238.024 C 397.200 236.937,397.380 235.936,397.600 235.800 C 397.820 235.664,398.000 234.483,398.000 233.176 C 398.000 231.859,398.178 230.800,398.400 230.800 C 398.628 230.800,398.800 229.611,398.800 228.033 C 398.800 226.176,398.964 225.212,399.300 225.100 C 399.693 224.969,399.800 219.591,399.800 200.000 C 399.800 180.409,399.693 175.031,399.300 174.900 C 398.964 174.788,398.800 173.824,398.800 171.967 C 398.800 170.389,398.628 169.200,398.400 169.200 C 398.178 169.200,398.000 168.141,398.000 166.824 C 398.000 165.517,397.820 164.336,397.600 164.200 C 397.380 164.064,397.200 163.063,397.200 161.976 C 397.200 160.889,397.020 160.000,396.800 160.000 C 396.580 160.000,396.400 159.291,396.400 158.424 C 396.400 157.557,396.220 156.736,396.000 156.600 C 395.780 156.464,395.600 155.553,395.600 154.576 C 395.600 153.599,395.420 152.800,395.200 152.800 C 394.980 152.800,394.800 152.080,394.800 151.200 C 394.800 150.320,394.620 149.600,394.400 149.600 C 394.180 149.600,394.000 148.970,394.000 148.200 C 394.000 147.430,393.820 146.800,393.600 146.800 C 393.380 146.800,393.200 146.170,393.200 145.400 C 393.200 144.630,393.020 144.000,392.800 144.000 C 392.580 144.000,392.400 143.370,392.400 142.600 C 392.400 141.830,392.243 141.200,392.052 141.200 C 391.860 141.200,391.578 140.259,391.426 139.110 C 391.273 137.960,391.013 136.835,390.846 136.610 C 390.680 136.384,390.311 135.390,390.026 134.400 C 389.350 132.047,388.426 129.620,387.553 127.905 C 387.359 127.523,387.200 126.848,387.200 126.405 C 387.200 125.962,387.020 125.600,386.800 125.600 C 386.580 125.600,386.400 125.240,386.400 124.800 C 386.400 124.360,386.220 124.000,386.000 124.000 C 385.780 124.000,385.600 123.561,385.600 123.024 C 385.600 122.487,385.420 121.936,385.200 121.800 C 384.980 121.664,384.800 121.203,384.800 120.776 C 384.800 120.349,384.620 120.000,384.400 120.000 C 384.180 120.000,384.000 119.640,384.000 119.200 C 384.000 118.760,383.820 118.400,383.600 118.400 C 383.380 118.400,383.200 118.040,383.200 117.600 C 383.200 117.160,383.020 116.800,382.800 116.800 C 382.580 116.800,382.400 116.528,382.400 116.195 C 382.400 115.862,382.232 115.277,382.026 114.895 C 381.821 114.513,381.417 113.615,381.129 112.900 C 380.840 112.185,380.469 111.600,380.302 111.600 C 380.136 111.600,380.000 111.240,380.000 110.800 C 380.000 110.360,379.820 110.000,379.600 110.000 C 379.380 110.000,379.200 109.640,379.200 109.200 C 379.200 108.760,379.020 108.400,378.800 108.400 C 378.580 108.400,378.400 108.040,378.400 107.600 C 378.400 107.160,378.220 106.800,378.000 106.800 C 377.780 106.800,377.600 106.440,377.600 106.000 C 377.600 105.560,377.420 105.200,377.200 105.200 C 376.980 105.200,376.800 104.930,376.800 104.600 C 376.800 104.270,376.620 104.000,376.400 104.000 C 376.180 104.000,376.000 103.730,376.000 103.400 C 376.000 103.070,375.843 102.800,375.650 102.800 C 375.457 102.800,375.190 102.252,375.056 101.581 C 374.922 100.911,374.309 99.606,373.694 98.681 C 373.079 97.757,372.327 96.508,372.024 95.907 C 371.720 95.305,371.141 94.458,370.736 94.023 C 370.331 93.589,370.000 92.996,370.000 92.705 C 370.000 92.414,369.640 91.917,369.200 91.600 C 368.760 91.283,368.400 90.743,368.400 90.400 C 368.400 90.057,368.040 89.517,367.600 89.200 C 367.160 88.883,366.800 88.343,366.800 88.000 C 366.800 87.657,366.440 87.117,366.000 86.800 C 365.560 86.483,365.200 86.038,365.199 85.812 C 365.199 85.585,364.659 84.770,364.000 84.000 C 363.341 83.230,362.801 82.415,362.801 82.188 C 362.800 81.962,362.440 81.517,362.000 81.200 C 361.560 80.883,361.200 80.428,361.200 80.190 C 361.200 79.951,360.570 79.069,359.800 78.228 C 359.030 77.387,358.400 76.577,358.400 76.428 C 358.400 76.279,357.770 75.469,357.000 74.628 C 356.230 73.787,355.600 72.946,355.600 72.758 C 355.600 72.571,354.610 71.427,353.400 70.217 C 352.190 69.007,351.200 67.860,351.200 67.667 C 351.200 67.474,349.587 65.715,347.615 63.758 C 342.956 59.134,342.222 58.400,337.050 53.186 C 334.658 50.774,332.529 48.800,332.319 48.800 C 332.109 48.800,331.257 48.092,330.425 47.227 C 329.594 46.361,328.213 45.186,327.357 44.614 C 325.709 43.515,324.100 42.230,321.706 40.100 C 320.902 39.385,320.049 38.800,319.810 38.800 C 319.572 38.800,319.117 38.440,318.800 38.000 C 318.483 37.560,318.038 37.200,317.812 37.199 C 317.585 37.199,316.770 36.659,316.000 36.000 C 315.230 35.341,314.415 34.801,314.188 34.801 C 313.962 34.800,313.517 34.440,313.200 34.000 C 312.883 33.560,312.343 33.200,312.000 33.200 C 311.657 33.200,311.117 32.840,310.800 32.400 C 310.483 31.960,309.918 31.600,309.545 31.600 C 309.172 31.600,308.807 31.453,308.733 31.272 C 308.499 30.697,303.745 27.652,302.653 27.377 C 302.074 27.232,301.600 26.953,301.600 26.757 C 301.600 26.560,301.330 26.400,301.000 26.400 C 300.670 26.400,300.400 26.220,300.400 26.000 C 300.400 25.780,300.040 25.600,299.600 25.600 C 299.160 25.600,298.800 25.420,298.800 25.200 C 298.800 24.980,298.522 24.800,298.183 24.800 C 297.844 24.800,297.180 24.440,296.708 24.000 C 296.236 23.560,295.613 23.200,295.325 23.200 C 295.036 23.200,294.800 23.020,294.800 22.800 C 294.800 22.580,294.440 22.400,294.000 22.400 C 293.560 22.400,293.200 22.220,293.200 22.000 C 293.200 21.780,292.840 21.600,292.400 21.600 C 291.960 21.600,291.600 21.420,291.600 21.200 C 291.600 20.980,291.255 20.800,290.833 20.800 C 290.412 20.800,290.007 20.664,289.933 20.498 C 289.860 20.332,288.540 19.593,287.000 18.856 C 285.460 18.119,283.887 17.355,283.505 17.158 C 283.123 16.961,282.538 16.800,282.205 16.800 C 281.872 16.800,281.600 16.620,281.600 16.400 C 281.600 16.180,281.240 16.000,280.800 16.000 C 280.360 16.000,280.000 15.820,280.000 15.600 C 280.000 15.380,279.651 15.200,279.224 15.200 C 278.797 15.200,278.336 15.020,278.200 14.800 C 278.064 14.580,277.513 14.400,276.976 14.400 C 276.439 14.400,276.000 14.220,276.000 14.000 C 276.000 13.780,275.728 13.600,275.395 13.600 C 275.062 13.600,274.477 13.441,274.095 13.247 C 273.713 13.052,272.950 12.716,272.400 12.500 C 271.850 12.284,270.950 11.912,270.400 11.674 C 268.469 10.837,265.562 10.000,264.586 10.000 C 264.044 10.000,263.600 9.820,263.600 9.600 C 263.600 9.380,263.060 9.200,262.400 9.200 C 261.740 9.200,261.200 9.020,261.200 8.800 C 261.200 8.580,260.660 8.400,260.000 8.400 C 259.340 8.400,258.800 8.220,258.800 8.000 C 258.800 7.780,258.170 7.600,257.400 7.600 C 256.630 7.600,256.000 7.420,256.000 7.200 C 256.000 6.980,255.471 6.800,254.824 6.800 C 254.177 6.800,253.536 6.620,253.400 6.400 C 253.264 6.180,252.533 6.000,251.776 6.000 C 251.019 6.000,250.400 5.820,250.400 5.600 C 250.400 5.380,249.680 5.200,248.800 5.200 C 247.920 5.200,247.200 5.020,247.200 4.800 C 247.200 4.580,246.401 4.400,245.424 4.400 C 244.447 4.400,243.536 4.220,243.400 4.000 C 243.264 3.780,242.443 3.600,241.576 3.600 C 240.709 3.600,240.000 3.420,240.000 3.200 C 240.000 2.980,239.111 2.800,238.024 2.800 C 236.937 2.800,235.936 2.620,235.800 2.400 C 235.664 2.180,234.584 2.000,233.400 2.000 C 232.216 2.000,231.136 1.820,231.000 1.600 C 230.864 1.380,229.518 1.200,228.010 1.200 C 226.196 1.200,225.211 1.033,225.103 0.708 C 224.941 0.223,187.959 -0.121,178.500 0.275 M247.200 112.350 C 270.868 112.965,289.896 114.031,294.691 115.012 C 307.433 117.618,315.606 124.866,319.936 137.400 C 320.703 139.619,320.968 140.574,322.041 145.000 C 322.816 148.197,323.373 152.983,324.460 165.800 C 325.109 173.453,325.109 226.547,324.460 234.200 C 323.373 247.017,322.816 251.803,322.041 255.000 C 320.968 259.426,320.703 260.381,319.936 262.600 C 318.790 265.919,316.211 271.124,314.896 272.775 C 312.650 275.593,307.776 280.000,306.904 280.000 C 306.627 280.000,306.400 280.145,306.400 280.323 C 306.400 280.682,301.524 283.200,300.829 283.200 C 300.587 283.200,300.077 283.362,299.695 283.561 C 298.939 283.953,296.933 284.492,293.800 285.143 C 291.817 285.554,285.705 286.032,272.600 286.799 C 235.490 288.970,143.940 288.496,115.600 285.987 C 99.878 284.594,92.567 281.395,85.042 272.613 C 83.964 271.355,81.200 265.911,81.200 265.045 C 81.200 264.764,81.078 264.411,80.929 264.262 C 80.489 263.822,78.822 258.676,78.810 257.724 C 78.805 257.242,78.620 256.736,78.400 256.600 C 78.180 256.464,78.000 255.679,78.000 254.856 C 78.000 254.033,77.835 253.189,77.634 252.980 C 77.432 252.771,77.159 251.430,77.027 250.000 C 76.895 248.570,76.607 245.600,76.386 243.400 C 75.267 232.231,75.114 227.018,75.114 200.000 C 75.114 172.982,75.267 167.769,76.386 156.600 C 76.607 154.400,76.895 151.430,77.027 150.000 C 77.159 148.570,77.432 147.229,77.634 147.020 C 77.835 146.811,78.000 145.967,78.000 145.144 C 78.000 144.321,78.180 143.536,78.400 143.400 C 78.620 143.264,78.800 142.734,78.800 142.221 C 78.800 139.748,83.103 129.692,85.302 127.026 C 87.961 123.802,92.177 120.004,93.100 120.001 C 93.375 120.001,93.600 119.858,93.600 119.684 C 93.600 118.815,100.483 116.095,105.400 115.019 C 110.266 113.955,129.619 112.929,153.916 112.446 C 163.439 112.257,171.354 111.980,171.503 111.830 C 171.874 111.460,227.653 111.843,247.200 112.350 M171.600 197.206 C 171.600 217.883,171.649 234.800,171.709 234.800 C 171.769 234.800,173.617 233.855,175.816 232.700 C 178.015 231.545,181.791 229.612,184.207 228.405 C 186.623 227.198,188.660 226.073,188.733 225.905 C 188.807 225.737,189.212 225.600,189.633 225.600 C 190.055 225.600,190.400 225.420,190.400 225.200 C 190.400 224.980,190.745 224.800,191.167 224.800 C 191.588 224.800,191.993 224.665,192.067 224.500 C 192.140 224.335,193.370 223.593,194.800 222.850 C 196.230 222.108,199.380 220.471,201.800 219.213 C 204.220 217.955,209.710 215.144,214.000 212.966 C 218.290 210.788,221.890 208.911,222.000 208.793 C 222.110 208.676,223.820 207.777,225.800 206.794 C 227.780 205.811,229.460 204.871,229.533 204.704 C 229.607 204.537,229.997 204.400,230.400 204.400 C 230.803 204.400,231.193 204.265,231.267 204.100 C 231.340 203.935,234.010 202.474,237.200 200.853 C 244.314 197.238,244.015 197.536,241.711 196.369 C 240.660 195.836,239.740 195.265,239.667 195.100 C 239.593 194.935,239.203 194.800,238.800 194.800 C 238.397 194.800,238.007 194.663,237.933 194.496 C 237.860 194.329,236.180 193.389,234.200 192.406 C 232.220 191.423,230.510 190.525,230.400 190.410 C 230.290 190.294,227.637 188.900,224.505 187.311 C 221.373 185.723,216.513 183.218,213.705 181.745 C 210.897 180.272,207.520 178.511,206.200 177.833 C 204.880 177.155,203.740 176.465,203.667 176.300 C 203.593 176.135,203.203 176.000,202.800 176.000 C 202.397 176.000,202.007 175.864,201.933 175.699 C 201.860 175.533,200.000 174.487,197.800 173.375 C 188.699 168.775,181.388 164.991,181.200 164.784 C 181.090 164.663,179.650 163.892,178.000 163.071 C 176.350 162.249,174.235 161.135,173.300 160.595 L 171.600 159.612 171.600 197.206 " stroke="none" fill="#cc1b1c" fill-rule="evenodd"></path><path id="path2" d="M196.900 111.897 C 198.605 111.972,201.395 111.972,203.100 111.897 C 204.805 111.822,203.410 111.761,200.000 111.761 C 196.590 111.761,195.195 111.822,196.900 111.897 M178.918 112.298 C 180.633 112.373,183.333 112.372,184.918 112.297 C 186.503 112.221,185.100 112.159,181.800 112.160 C 178.500 112.161,177.203 112.222,178.918 112.298 M215.318 112.298 C 217.033 112.373,219.733 112.372,221.318 112.297 C 222.903 112.221,221.500 112.159,218.200 112.160 C 214.900 112.161,213.603 112.222,215.318 112.298 M150.512 112.695 C 151.564 112.777,153.184 112.776,154.112 112.692 C 155.040 112.608,154.180 112.541,152.200 112.542 C 150.220 112.543,149.460 112.612,150.512 112.695 M246.112 112.695 C 247.164 112.777,248.784 112.776,249.712 112.692 C 250.640 112.608,249.780 112.541,247.800 112.542 C 245.820 112.543,245.060 112.612,246.112 112.695 M142.700 113.089 C 143.415 113.178,144.585 113.178,145.300 113.089 C 146.015 113.001,145.430 112.928,144.000 112.928 C 142.570 112.928,141.985 113.001,142.700 113.089 M255.107 113.090 C 255.826 113.179,256.906 113.177,257.507 113.086 C 258.108 112.995,257.520 112.922,256.200 112.924 C 254.880 112.926,254.388 113.001,255.107 113.090 M129.091 113.489 C 129.801 113.577,131.061 113.579,131.891 113.492 C 132.721 113.405,132.140 113.333,130.600 113.331 C 129.060 113.329,128.381 113.400,129.091 113.489 M267.891 113.489 C 268.601 113.577,269.861 113.579,270.691 113.492 C 271.521 113.405,270.940 113.333,269.400 113.331 C 267.860 113.329,267.181 113.400,267.891 113.489 M124.705 113.883 C 125.202 113.979,125.922 113.975,126.305 113.875 C 126.687 113.775,126.280 113.696,125.400 113.701 C 124.520 113.705,124.207 113.787,124.705 113.883 M273.905 113.883 C 274.402 113.979,275.122 113.975,275.505 113.875 C 275.887 113.775,275.480 113.696,274.600 113.701 C 273.720 113.705,273.407 113.787,273.905 113.883 M115.705 114.287 C 116.314 114.379,117.214 114.377,117.705 114.282 C 118.197 114.187,117.700 114.111,116.600 114.114 C 115.500 114.117,115.097 114.195,115.705 114.287 M282.700 114.282 C 283.195 114.378,284.005 114.378,284.500 114.282 C 284.995 114.187,284.590 114.109,283.600 114.109 C 282.610 114.109,282.205 114.187,282.700 114.282 M323.293 156.800 C 323.293 157.570,323.375 157.885,323.476 157.500 C 323.576 157.115,323.576 156.485,323.476 156.100 C 323.375 155.715,323.293 156.030,323.293 156.800 M76.493 157.200 C 76.493 157.970,76.575 158.285,76.676 157.900 C 76.776 157.515,76.776 156.885,76.676 156.500 C 76.575 156.115,76.493 156.430,76.493 157.200 M324.109 165.600 C 324.109 166.590,324.187 166.995,324.282 166.500 C 324.378 166.005,324.378 165.195,324.282 164.700 C 324.187 164.205,324.109 164.610,324.109 165.600 M75.714 166.200 C 75.717 167.300,75.795 167.703,75.887 167.095 C 75.979 166.486,75.977 165.586,75.882 165.095 C 75.787 164.603,75.711 165.100,75.714 166.200 M324.493 173.600 C 324.493 174.370,324.575 174.685,324.676 174.300 C 324.776 173.915,324.776 173.285,324.676 172.900 C 324.575 172.515,324.493 172.830,324.493 173.600 M75.293 174.000 C 75.293 174.770,75.375 175.085,75.476 174.700 C 75.576 174.315,75.576 173.685,75.476 173.300 C 75.375 172.915,75.293 173.230,75.293 174.000 M74.950 181.800 C 74.951 184.220,75.016 185.158,75.096 183.885 C 75.176 182.612,75.175 180.632,75.094 179.485 C 75.014 178.338,74.949 179.380,74.950 181.800 M324.951 182.000 C 324.951 184.530,325.016 185.565,325.096 184.300 C 325.175 183.035,325.175 180.965,325.096 179.700 C 325.016 178.435,324.951 179.470,324.951 182.000 M324.953 217.800 C 324.953 220.440,325.018 221.468,325.097 220.084 C 325.175 218.701,325.174 216.541,325.095 215.284 C 325.016 214.028,324.952 215.160,324.953 217.800 M74.950 218.200 C 74.951 220.620,75.016 221.558,75.096 220.285 C 75.176 219.012,75.175 217.032,75.094 215.885 C 75.014 214.738,74.949 215.780,74.950 218.200 M75.293 226.000 C 75.293 226.770,75.375 227.085,75.476 226.700 C 75.576 226.315,75.576 225.685,75.476 225.300 C 75.375 224.915,75.293 225.230,75.293 226.000 M324.493 226.400 C 324.493 227.170,324.575 227.485,324.676 227.100 C 324.776 226.715,324.776 226.085,324.676 225.700 C 324.575 225.315,324.493 225.630,324.493 226.400 M75.709 233.600 C 75.709 234.590,75.787 234.995,75.882 234.500 C 75.978 234.005,75.978 233.195,75.882 232.700 C 75.787 232.205,75.709 232.610,75.709 233.600 M324.109 234.400 C 324.109 235.390,324.187 235.795,324.282 235.300 C 324.378 234.805,324.378 233.995,324.282 233.500 C 324.187 233.005,324.109 233.410,324.109 234.400 M76.501 242.600 C 76.505 243.480,76.587 243.793,76.683 243.295 C 76.779 242.798,76.775 242.078,76.675 241.695 C 76.575 241.313,76.496 241.720,76.501 242.600 M323.293 243.200 C 323.293 243.970,323.375 244.285,323.476 243.900 C 323.576 243.515,323.576 242.885,323.476 242.500 C 323.375 242.115,323.293 242.430,323.293 243.200 M116.900 285.876 C 117.285 285.976,117.915 285.976,118.300 285.876 C 118.685 285.775,118.370 285.693,117.600 285.693 C 116.830 285.693,116.515 285.775,116.900 285.876 M282.305 285.883 C 282.802 285.979,283.522 285.975,283.905 285.875 C 284.287 285.775,283.880 285.696,283.000 285.701 C 282.120 285.705,281.807 285.787,282.305 285.883 M124.905 286.287 C 125.514 286.379,126.414 286.377,126.905 286.282 C 127.397 286.187,126.900 286.111,125.800 286.114 C 124.700 286.117,124.297 286.195,124.905 286.287 M273.100 286.282 C 273.595 286.378,274.405 286.378,274.900 286.282 C 275.395 286.187,274.990 286.109,274.000 286.109 C 273.010 286.109,272.605 286.187,273.100 286.282 M130.100 286.687 C 130.705 286.778,131.695 286.778,132.300 286.687 C 132.905 286.595,132.410 286.520,131.200 286.520 C 129.990 286.520,129.495 286.595,130.100 286.687 M267.700 286.687 C 268.305 286.778,269.295 286.778,269.900 286.687 C 270.505 286.595,270.010 286.520,268.800 286.520 C 267.590 286.520,267.095 286.595,267.700 286.687 M144.691 287.089 C 145.401 287.177,146.661 287.179,147.491 287.092 C 148.321 287.005,147.740 286.933,146.200 286.931 C 144.660 286.929,143.981 287.000,144.691 287.089 M253.891 287.089 C 254.601 287.177,255.861 287.179,256.691 287.092 C 257.521 287.005,256.940 286.933,255.400 286.931 C 253.860 286.929,253.181 287.000,253.891 287.089 M153.100 287.495 C 154.255 287.576,156.145 287.576,157.300 287.495 C 158.455 287.414,157.510 287.348,155.200 287.348 C 152.890 287.348,151.945 287.414,153.100 287.495 M245.712 287.495 C 246.764 287.577,248.384 287.576,249.312 287.492 C 250.240 287.408,249.380 287.341,247.400 287.342 C 245.420 287.343,244.660 287.412,245.712 287.495 M182.316 287.897 C 183.699 287.975,185.859 287.974,187.116 287.895 C 188.372 287.816,187.240 287.752,184.600 287.753 C 181.960 287.753,180.932 287.818,182.316 287.897 M217.100 287.897 C 218.695 287.973,221.305 287.973,222.900 287.897 C 224.495 287.821,223.190 287.759,220.000 287.759 C 216.810 287.759,215.505 287.821,217.100 287.897 M198.900 288.296 C 200.165 288.375,202.235 288.375,203.500 288.296 C 204.765 288.216,203.730 288.151,201.200 288.151 C 198.670 288.151,197.635 288.216,198.900 288.296 " stroke="none" fill="#e07376" fill-rule="evenodd"></path><path id="path3" d="M193.700 112.299 C 197.165 112.366,202.835 112.366,206.300 112.299 C 209.765 112.233,206.930 112.178,200.000 112.178 C 193.070 112.178,190.235 112.233,193.700 112.299 M162.500 112.699 C 166.405 112.765,172.795 112.765,176.700 112.699 C 180.605 112.634,177.410 112.580,169.600 112.580 C 161.790 112.580,158.595 112.634,162.500 112.699 M223.474 112.699 C 227.255 112.765,233.555 112.765,237.474 112.699 C 241.393 112.634,238.300 112.580,230.600 112.580 C 222.900 112.580,219.693 112.634,223.474 112.699 M148.515 113.096 C 149.788 113.176,151.768 113.175,152.915 113.094 C 154.062 113.014,153.020 112.949,150.600 112.950 C 148.180 112.951,147.242 113.016,148.515 113.096 M247.300 113.096 C 248.565 113.175,250.635 113.175,251.900 113.096 C 253.165 113.016,252.130 112.951,249.600 112.951 C 247.070 112.951,246.035 113.016,247.300 113.096 M136.100 113.497 C 137.805 113.572,140.595 113.572,142.300 113.497 C 144.005 113.422,142.610 113.361,139.200 113.361 C 135.790 113.361,134.395 113.422,136.100 113.497 M257.700 113.497 C 259.405 113.572,262.195 113.572,263.900 113.497 C 265.605 113.422,264.210 113.361,260.800 113.361 C 257.390 113.361,255.995 113.422,257.700 113.497 M128.100 113.891 C 128.925 113.978,130.275 113.978,131.100 113.891 C 131.925 113.805,131.250 113.734,129.600 113.734 C 127.950 113.734,127.275 113.805,128.100 113.891 M268.900 113.891 C 269.725 113.978,271.075 113.978,271.900 113.891 C 272.725 113.805,272.050 113.734,270.400 113.734 C 268.750 113.734,268.075 113.805,268.900 113.891 M120.313 114.295 C 121.476 114.376,123.276 114.376,124.313 114.293 C 125.351 114.211,124.400 114.145,122.200 114.146 C 120.000 114.147,119.151 114.214,120.313 114.295 M275.900 114.295 C 277.055 114.376,278.945 114.376,280.100 114.295 C 281.255 114.214,280.310 114.148,278.000 114.148 C 275.690 114.148,274.745 114.214,275.900 114.295 M113.900 114.689 C 114.615 114.778,115.785 114.778,116.500 114.689 C 117.215 114.601,116.630 114.528,115.200 114.528 C 113.770 114.528,113.185 114.601,113.900 114.689 M283.500 114.689 C 284.215 114.778,285.385 114.778,286.100 114.689 C 286.815 114.601,286.230 114.528,284.800 114.528 C 283.370 114.528,282.785 114.601,283.500 114.689 M107.200 115.197 C 106.619 115.381,107.373 115.425,109.000 115.301 C 110.540 115.184,111.875 115.023,111.967 114.944 C 112.288 114.666,108.189 114.883,107.200 115.197 M288.033 114.944 C 288.125 115.023,289.460 115.184,291.000 115.301 C 292.627 115.425,293.381 115.381,292.800 115.197 C 291.811 114.883,287.712 114.666,288.033 114.944 M103.400 116.000 C 102.381 116.438,103.432 116.438,104.800 116.000 C 105.604 115.743,105.643 115.677,105.000 115.668 C 104.560 115.662,103.840 115.811,103.400 116.000 M294.433 115.747 C 294.525 115.828,295.320 116.004,296.200 116.138 C 297.315 116.307,297.558 116.271,297.000 116.019 C 296.232 115.671,294.090 115.444,294.433 115.747 M100.400 116.818 C 99.962 117.115,100.124 117.152,101.000 116.956 C 102.471 116.627,102.790 116.398,101.767 116.406 C 101.345 116.409,100.730 116.595,100.400 116.818 M94.400 119.633 L 93.400 120.448 94.700 119.814 C 95.415 119.465,96.000 119.094,96.000 118.990 C 96.000 118.592,95.363 118.848,94.400 119.633 M91.585 121.629 L 90.200 122.858 91.700 121.781 C 93.026 120.830,93.457 120.400,93.085 120.400 C 93.022 120.400,92.347 120.953,91.585 121.629 M88.193 124.407 C 87.337 125.283,86.749 126.000,86.884 126.000 C 87.259 126.000,90.099 123.165,89.911 122.978 C 89.822 122.888,89.048 123.531,88.193 124.407 M311.600 124.593 C 312.590 125.688,313.445 126.663,313.500 126.759 C 313.555 126.855,313.686 126.847,313.791 126.743 C 313.896 126.638,313.041 125.663,311.891 124.576 L 309.800 122.600 311.600 124.593 M84.653 128.791 C 84.074 129.667,83.600 130.517,83.600 130.680 C 83.600 130.844,83.842 130.623,84.139 130.189 C 85.441 128.281,86.078 127.200,85.899 127.200 C 85.793 127.200,85.232 127.916,84.653 128.791 M316.278 130.995 C 316.644 131.762,317.014 132.319,317.101 132.232 C 317.284 132.049,316.070 129.600,315.796 129.600 C 315.695 129.600,315.912 130.228,316.278 130.995 M81.947 133.900 C 80.574 137.389,79.603 140.272,79.625 140.798 C 79.639 141.129,79.980 140.410,80.383 139.200 C 80.786 137.990,81.492 136.055,81.952 134.900 C 82.412 133.745,82.696 132.800,82.584 132.800 C 82.472 132.800,82.185 133.295,81.947 133.900 M319.764 139.400 C 319.875 139.840,320.311 141.550,320.732 143.200 C 321.668 146.862,322.358 150.463,322.534 152.600 C 322.659 154.116,322.669 154.100,322.733 152.277 C 322.770 151.220,322.607 149.510,322.371 148.477 C 321.154 143.148,320.256 139.738,319.928 139.200 C 319.647 138.740,319.609 138.786,319.764 139.400 M78.849 143.200 C 78.816 143.530,78.689 144.250,78.567 144.800 C 78.375 145.664,78.407 145.703,78.799 145.088 C 79.048 144.697,79.175 143.977,79.081 143.488 C 78.986 143.000,78.882 142.870,78.849 143.200 M78.054 146.800 C 78.019 147.350,77.896 148.250,77.783 148.800 L 77.577 149.800 78.007 148.815 C 78.243 148.274,78.365 147.374,78.278 146.815 L 78.120 145.800 78.054 146.800 M77.324 152.200 C 77.326 153.520,77.401 154.012,77.490 153.293 C 77.579 152.574,77.577 151.494,77.486 150.893 C 77.395 150.292,77.322 150.880,77.324 152.200 M322.901 155.800 C 322.905 156.680,322.987 156.993,323.083 156.495 C 323.179 155.998,323.175 155.278,323.075 154.895 C 322.975 154.513,322.896 154.920,322.901 155.800 M76.893 156.000 C 76.893 156.770,76.975 157.085,77.076 156.700 C 77.176 156.315,77.176 155.685,77.076 155.300 C 76.975 154.915,76.893 155.230,76.893 156.000 M323.235 160.233 C 323.254 161.535,323.419 163.500,323.601 164.600 C 323.829 165.978,323.865 165.293,323.716 162.400 C 323.480 157.812,323.179 156.457,323.235 160.233 M76.281 162.155 C 76.113 164.330,76.055 166.188,76.151 166.284 C 76.412 166.545,76.896 160.787,76.730 159.400 C 76.651 158.740,76.449 159.980,76.281 162.155 M171.067 159.067 C 170.730 159.404,170.712 235.379,171.049 235.715 C 171.301 235.968,175.200 234.155,175.200 233.785 C 175.200 233.674,174.487 233.947,173.616 234.392 C 172.745 234.836,171.843 235.200,171.612 235.200 C 171.321 235.200,171.224 223.474,171.296 197.000 C 171.353 175.990,171.385 158.800,171.367 158.800 C 171.348 158.800,171.213 158.920,171.067 159.067 M172.611 159.734 C 173.496 160.332,174.800 160.858,174.800 160.617 C 174.800 160.437,172.398 159.200,172.050 159.200 C 171.924 159.200,172.177 159.440,172.611 159.734 M184.400 165.790 C 184.400 166.024,186.639 167.201,187.080 167.199 C 187.256 167.198,186.811 166.838,186.090 166.399 C 184.751 165.582,184.400 165.456,184.400 165.790 M187.600 167.379 C 187.600 167.489,188.140 167.859,188.800 168.200 C 189.460 168.541,190.000 168.731,190.000 168.621 C 190.000 168.511,189.460 168.141,188.800 167.800 C 188.140 167.459,187.600 167.269,187.600 167.379 M324.042 170.433 C 324.066 172.285,324.226 175.420,324.399 177.400 C 324.619 179.922,324.651 178.964,324.507 174.200 C 324.293 167.155,323.968 164.517,324.042 170.433 M75.471 174.139 C 75.291 177.625,75.228 180.562,75.331 180.664 C 75.590 180.923,76.103 171.355,75.935 169.400 C 75.859 168.520,75.650 170.653,75.471 174.139 M195.200 171.384 C 195.200 171.494,195.920 171.951,196.800 172.400 C 197.680 172.849,198.400 173.126,198.400 173.016 C 198.400 172.906,197.680 172.449,196.800 172.000 C 195.920 171.551,195.200 171.274,195.200 171.384 M199.411 173.734 C 200.296 174.332,201.600 174.858,201.600 174.617 C 201.600 174.437,199.198 173.200,198.850 173.200 C 198.724 173.200,198.977 173.440,199.411 173.734 M202.000 174.962 C 202.000 175.087,203.260 175.824,204.800 176.600 C 206.340 177.376,207.600 177.920,207.600 177.811 C 207.600 177.701,206.475 177.025,205.100 176.309 C 201.951 174.667,202.000 174.689,202.000 174.962 M211.200 179.790 C 211.200 179.894,211.785 180.265,212.500 180.614 L 213.800 181.248 212.800 180.433 C 211.837 179.648,211.200 179.392,211.200 179.790 M214.400 181.379 C 214.400 181.489,214.940 181.859,215.600 182.200 C 216.260 182.541,216.800 182.731,216.800 182.621 C 216.800 182.511,216.260 182.141,215.600 181.800 C 214.940 181.459,214.400 181.269,214.400 181.379 M218.345 183.623 C 219.085 184.074,219.777 184.357,219.882 184.251 C 220.084 184.050,217.873 182.799,217.320 182.801 C 217.144 182.802,217.605 183.172,218.345 183.623 M220.400 184.596 C 220.400 184.870,222.849 186.084,223.032 185.901 C 223.119 185.814,222.562 185.444,221.795 185.078 C 221.028 184.712,220.400 184.495,220.400 184.596 M74.980 200.000 C 74.980 207.810,75.034 211.005,75.099 207.100 C 75.165 203.195,75.165 196.805,75.099 192.900 C 75.034 188.995,74.980 192.190,74.980 200.000 M223.600 186.184 C 223.600 186.294,224.320 186.751,225.200 187.200 C 226.080 187.649,226.800 187.926,226.800 187.816 C 226.800 187.706,226.080 187.249,225.200 186.800 C 224.320 186.351,223.600 186.074,223.600 186.184 M324.980 199.800 C 324.980 207.280,325.034 210.283,325.099 206.474 C 325.165 202.665,325.165 196.545,325.099 192.874 C 325.033 189.203,324.979 192.320,324.980 199.800 M227.235 188.168 C 227.642 188.575,234.559 192.053,234.200 191.670 C 233.980 191.436,232.380 190.514,230.645 189.622 C 227.751 188.134,226.793 187.726,227.235 188.168 M239.600 194.587 C 239.600 194.697,240.500 195.243,241.600 195.800 C 242.700 196.357,243.600 196.723,243.600 196.613 C 243.600 196.503,242.700 195.957,241.600 195.400 C 240.500 194.843,239.600 194.477,239.600 194.587 M238.700 200.629 C 237.205 201.440,237.296 201.778,238.800 201.000 C 239.460 200.659,240.000 200.294,240.000 200.190 C 240.000 199.932,239.957 199.947,238.700 200.629 M235.465 202.247 C 234.840 202.586,234.415 202.948,234.520 203.053 C 234.624 203.157,235.315 202.874,236.055 202.423 C 237.613 201.473,237.148 201.335,235.465 202.247 M224.400 208.000 C 223.630 208.422,223.270 208.770,223.600 208.774 C 223.930 208.779,224.650 208.430,225.200 208.000 C 226.457 207.017,226.196 207.017,224.400 208.000 M221.400 209.637 C 220.740 210.095,220.470 210.364,220.800 210.235 C 221.130 210.106,221.715 209.889,222.100 209.754 C 222.485 209.618,222.800 209.348,222.800 209.153 C 222.800 208.676,222.772 208.686,221.400 209.637 M215.286 212.763 C 212.416 214.272,211.079 215.148,212.615 214.513 C 214.141 213.882,218.400 211.586,218.400 211.394 C 218.400 211.118,218.485 211.081,215.286 212.763 M207.127 216.949 C 204.996 218.085,203.106 219.166,202.927 219.353 C 202.578 219.715,210.191 215.915,211.200 215.224 C 212.679 214.209,210.670 215.060,207.127 216.949 M75.493 225.400 C 75.607 228.920,75.767 231.875,75.850 231.967 C 76.106 232.251,75.917 224.750,75.594 221.800 C 75.403 220.060,75.365 221.423,75.493 225.400 M324.201 225.276 C 324.044 228.424,323.986 231.450,324.071 232.000 C 324.157 232.550,324.367 230.056,324.538 226.457 C 324.708 222.859,324.767 219.833,324.667 219.734 C 324.567 219.634,324.357 222.128,324.201 225.276 M191.490 225.068 C 190.000 225.863,188.852 226.585,188.938 226.672 C 189.105 226.839,193.531 224.537,194.180 223.946 C 194.836 223.348,194.282 223.579,191.490 225.068 M186.889 227.465 C 186.168 227.820,185.643 228.177,185.724 228.257 C 185.895 228.428,188.400 227.224,188.400 226.971 C 188.400 226.729,188.347 226.746,186.889 227.465 M181.900 230.027 C 181.075 230.463,180.400 230.908,180.400 231.018 C 180.400 231.127,181.120 230.849,182.000 230.400 C 182.880 229.951,183.600 229.497,183.600 229.392 C 183.600 229.130,183.597 229.131,181.900 230.027 M176.600 232.827 C 175.940 233.250,175.580 233.596,175.800 233.595 C 176.020 233.595,176.740 233.237,177.400 232.800 C 178.060 232.363,178.420 232.017,178.200 232.032 C 177.980 232.047,177.260 232.404,176.600 232.827 M76.278 237.200 C 76.401 239.290,76.569 241.075,76.651 241.167 C 76.944 241.494,76.747 236.569,76.404 235.000 C 76.161 233.888,76.122 234.559,76.278 237.200 M323.399 236.881 C 323.246 238.716,323.189 240.664,323.273 241.209 C 323.358 241.754,323.565 240.335,323.735 238.055 C 323.904 235.775,323.960 233.827,323.860 233.726 C 323.759 233.626,323.551 235.045,323.399 236.881 M77.092 246.000 C 77.212 247.870,77.375 249.475,77.455 249.567 C 77.735 249.888,77.550 245.784,77.214 244.200 C 76.977 243.083,76.940 243.627,77.092 246.000 M322.901 244.200 C 322.905 245.080,322.987 245.393,323.083 244.895 C 323.179 244.398,323.175 243.678,323.075 243.295 C 322.975 242.913,322.896 243.320,322.901 244.200 M322.467 247.600 C 322.392 249.582,321.646 253.396,320.434 257.989 C 319.754 260.566,319.523 262.602,320.147 260.530 C 321.736 255.246,322.893 249.291,322.699 247.400 L 322.534 245.800 322.467 247.600 M77.872 251.800 C 77.999 252.900,78.169 253.875,78.251 253.967 C 78.532 254.282,78.320 251.799,77.980 250.800 C 77.751 250.126,77.716 250.451,77.872 251.800 M78.658 255.600 C 78.975 257.325,79.202 257.651,79.194 256.367 C 79.191 255.835,79.011 255.130,78.794 254.800 C 78.518 254.378,78.477 254.615,78.658 255.600 M79.449 258.600 C 79.738 260.129,80.869 263.264,81.062 263.072 C 81.202 262.932,80.260 259.888,79.555 258.200 C 79.316 257.627,79.286 257.740,79.449 258.600 M81.209 263.851 C 81.196 264.522,82.417 267.316,82.631 267.103 C 82.732 267.002,82.455 266.127,82.016 265.160 C 81.577 264.192,81.214 263.603,81.209 263.851 M316.278 269.005 C 315.912 269.772,315.695 270.400,315.796 270.400 C 316.070 270.400,317.284 267.951,317.101 267.768 C 317.014 267.681,316.644 268.238,316.278 269.005 M83.600 269.361 C 83.600 269.755,85.910 273.097,86.386 273.391 C 86.593 273.519,86.124 272.673,85.344 271.512 C 83.738 269.120,83.600 268.951,83.600 269.361 M311.615 275.341 L 309.829 277.400 311.915 275.415 C 313.062 274.323,314.000 273.378,314.000 273.315 C 314.000 272.851,313.138 273.583,311.615 275.341 M88.000 275.400 C 88.746 276.170,89.508 276.800,89.692 276.800 C 89.876 276.800,89.397 276.170,88.627 275.400 C 87.857 274.630,87.095 274.000,86.935 274.000 C 86.774 274.000,87.254 274.630,88.000 275.400 M90.669 277.632 C 91.166 278.233,93.600 279.764,93.600 279.476 C 93.600 279.383,92.835 278.802,91.900 278.185 C 90.965 277.568,90.411 277.320,90.669 277.632 M99.200 282.400 C 99.530 282.613,100.070 282.788,100.400 282.788 C 100.933 282.788,100.933 282.745,100.400 282.400 C 100.070 282.187,99.530 282.012,99.200 282.012 C 98.667 282.012,98.667 282.055,99.200 282.400 M101.800 283.200 C 102.240 283.389,102.960 283.538,103.400 283.532 C 104.043 283.523,104.004 283.457,103.200 283.200 C 101.832 282.762,100.781 282.762,101.800 283.200 M298.400 283.200 C 297.867 283.545,297.867 283.588,298.400 283.588 C 298.730 283.588,299.270 283.413,299.600 283.200 C 300.133 282.855,300.133 282.812,299.600 282.812 C 299.270 282.812,298.730 282.987,298.400 283.200 M105.400 283.981 C 106.168 284.329,108.310 284.556,107.967 284.253 C 107.875 284.172,107.080 283.996,106.200 283.862 C 105.085 283.693,104.842 283.729,105.400 283.981 M295.200 284.000 C 294.396 284.257,294.357 284.323,295.000 284.332 C 295.440 284.338,296.160 284.189,296.600 284.000 C 297.619 283.562,296.568 283.562,295.200 284.000 M110.000 284.800 C 110.550 284.976,111.630 285.117,112.400 285.114 L 113.800 285.108 112.200 284.777 C 110.063 284.335,108.596 284.350,110.000 284.800 M290.000 284.800 L 288.600 285.095 290.200 285.107 C 291.080 285.115,292.250 284.976,292.800 284.800 C 294.169 284.362,292.083 284.362,290.000 284.800 M117.000 285.603 C 119.498 285.926,125.457 286.109,125.167 285.854 C 125.075 285.773,122.660 285.614,119.800 285.500 C 116.476 285.368,115.466 285.405,117.000 285.603 M278.000 285.600 L 274.200 285.847 277.600 285.874 C 279.470 285.889,282.260 285.771,283.800 285.613 L 286.600 285.326 284.200 285.340 C 282.880 285.347,280.090 285.464,278.000 285.600 M130.800 286.422 C 134.297 286.729,146.264 286.914,145.967 286.656 C 145.875 286.576,141.660 286.424,136.600 286.317 C 131.267 286.204,128.829 286.248,130.800 286.422 M261.000 286.400 L 255.400 286.635 260.600 286.678 C 263.460 286.701,267.330 286.586,269.200 286.422 L 272.600 286.124 269.600 286.145 C 267.950 286.156,264.080 286.271,261.000 286.400 M154.600 287.218 C 160.972 287.514,182.648 287.699,182.367 287.456 C 182.275 287.376,174.640 287.228,165.400 287.125 C 156.160 287.023,151.300 287.065,154.600 287.218 M233.200 287.200 L 222.600 287.420 232.600 287.464 C 238.100 287.489,244.940 287.380,247.800 287.222 L 253.000 286.935 248.400 286.958 C 245.870 286.970,239.030 287.079,233.200 287.200 M195.525 287.899 C 199.114 287.966,204.874 287.966,208.325 287.899 C 211.776 287.833,208.840 287.778,201.800 287.778 C 194.760 287.779,191.936 287.833,195.525 287.899 " stroke="none" fill="#e49494" fill-rule="evenodd"></path><path id="path4" d="M168.800 112.006 C 167.150 112.150,172.100 112.182,179.800 112.079 C 187.500 111.975,193.875 111.824,193.967 111.745 C 194.251 111.498,171.974 111.729,168.800 112.006 M206.033 111.745 C 206.125 111.824,212.500 111.979,220.200 112.089 C 227.900 112.198,232.670 112.151,230.800 111.984 C 227.404 111.680,205.718 111.471,206.033 111.745 M137.600 112.800 L 134.200 113.051 137.400 113.076 C 139.160 113.090,142.490 112.974,144.800 112.818 L 149.000 112.534 145.000 112.542 C 142.800 112.546,139.470 112.662,137.600 112.800 M255.200 112.818 C 257.510 112.974,260.840 113.095,262.600 113.086 L 265.800 113.071 262.000 112.780 C 259.910 112.620,256.580 112.500,254.600 112.512 L 251.000 112.534 255.200 112.818 M121.400 113.600 L 119.000 113.866 121.200 113.889 C 122.410 113.902,124.480 113.779,125.800 113.615 L 128.200 113.318 126.000 113.326 C 124.790 113.331,122.720 113.454,121.400 113.600 M274.200 113.615 C 275.520 113.779,277.590 113.905,278.800 113.896 L 281.000 113.878 278.400 113.586 C 276.970 113.425,274.900 113.299,273.800 113.306 L 271.800 113.318 274.200 113.615 M112.300 114.282 C 112.795 114.378,113.605 114.378,114.100 114.282 C 114.595 114.187,114.190 114.109,113.200 114.109 C 112.210 114.109,111.805 114.187,112.300 114.282 M285.900 114.282 C 286.395 114.378,287.205 114.378,287.700 114.282 C 288.195 114.187,287.790 114.109,286.800 114.109 C 285.810 114.109,285.405 114.187,285.900 114.282 M108.100 114.687 C 108.705 114.778,109.695 114.778,110.300 114.687 C 110.905 114.595,110.410 114.520,109.200 114.520 C 107.990 114.520,107.495 114.595,108.100 114.687 M289.700 114.687 C 290.305 114.778,291.295 114.778,291.900 114.687 C 292.505 114.595,292.010 114.520,290.800 114.520 C 289.590 114.520,289.095 114.595,289.700 114.687 M101.400 116.000 C 100.896 116.217,100.822 116.344,101.200 116.344 C 101.530 116.344,102.160 116.189,102.600 116.000 C 103.104 115.783,103.178 115.656,102.800 115.656 C 102.470 115.656,101.840 115.811,101.400 116.000 M297.200 115.763 C 297.200 115.852,298.235 116.246,299.500 116.638 C 300.765 117.030,302.406 117.686,303.147 118.095 C 303.888 118.504,304.564 118.769,304.650 118.684 C 304.878 118.456,301.697 116.939,299.486 116.221 C 297.440 115.557,297.200 115.509,297.200 115.763 M96.108 118.088 C 94.738 118.782,93.681 119.414,93.760 119.493 C 93.839 119.572,94.960 119.110,96.252 118.466 C 97.543 117.821,98.870 117.197,99.200 117.079 C 99.733 116.887,99.733 116.861,99.200 116.844 C 98.870 116.834,97.479 117.394,96.108 118.088 M305.200 118.901 C 305.200 119.155,308.296 121.200,308.680 121.200 C 308.844 121.200,308.623 120.958,308.189 120.661 C 306.281 119.359,305.200 118.722,305.200 118.901 M91.829 120.609 C 91.405 120.929,91.135 121.268,91.229 121.361 C 91.323 121.455,91.825 121.187,92.344 120.766 C 93.438 119.879,92.979 119.739,91.829 120.609 M89.009 122.991 C 88.135 123.740,87.505 124.432,87.609 124.530 C 87.714 124.629,88.520 124.011,89.400 123.157 C 91.370 121.247,91.154 121.156,89.009 122.991 M311.157 123.538 C 312.343 124.672,313.406 125.600,313.519 125.600 C 313.899 125.600,312.213 123.922,310.600 122.694 C 309.355 121.746,309.479 121.934,311.157 123.538 M84.095 128.623 C 83.603 129.374,83.200 130.123,83.200 130.287 C 83.200 130.451,83.666 129.900,84.236 129.062 C 84.805 128.224,85.208 127.475,85.131 127.398 C 85.054 127.320,84.588 127.872,84.095 128.623 M314.800 127.328 C 314.800 127.501,315.250 128.305,315.800 129.114 C 316.350 129.923,316.800 130.444,316.800 130.272 C 316.800 130.099,316.350 129.295,315.800 128.486 C 315.250 127.677,314.800 127.156,314.800 127.328 M318.449 134.500 C 318.910 135.655,319.647 137.735,320.088 139.122 C 320.528 140.510,320.965 141.568,321.059 141.474 C 321.378 141.156,318.234 132.400,317.800 132.400 C 317.697 132.400,317.989 133.345,318.449 134.500 M79.029 140.629 C 78.881 141.215,78.838 141.772,78.932 141.866 C 79.027 141.960,79.224 141.558,79.371 140.971 C 79.519 140.385,79.562 139.828,79.468 139.734 C 79.373 139.640,79.176 140.042,79.029 140.629 M321.212 143.200 C 321.212 143.530,321.387 144.070,321.600 144.400 C 321.945 144.933,321.988 144.933,321.988 144.400 C 321.988 144.070,321.813 143.530,321.600 143.200 C 321.255 142.667,321.212 142.667,321.212 143.200 M322.056 146.400 C 322.056 146.730,322.211 147.360,322.400 147.800 C 322.617 148.304,322.744 148.378,322.744 148.000 C 322.744 147.670,322.589 147.040,322.400 146.600 C 322.183 146.096,322.056 146.022,322.056 146.400 M77.467 147.067 C 77.320 147.213,77.211 147.708,77.225 148.167 C 77.249 148.933,77.282 148.923,77.634 148.042 C 78.026 147.063,77.944 146.589,77.467 147.067 M323.059 153.400 C 323.193 154.500,323.369 155.475,323.451 155.567 C 323.764 155.917,323.526 152.961,323.180 152.200 C 322.935 151.661,322.895 152.054,323.059 153.400 M76.673 152.553 C 76.523 152.945,76.420 153.926,76.444 154.733 L 76.488 156.200 76.842 154.400 C 77.222 152.470,77.122 151.383,76.673 152.553 M171.295 197.300 C 171.243 218.145,171.335 235.200,171.500 235.200 C 171.772 235.200,171.769 208.676,171.494 173.000 C 171.436 165.520,171.347 176.455,171.295 197.300 M323.651 160.200 C 323.648 160.640,323.795 161.720,323.977 162.600 L 324.308 164.200 324.326 162.600 C 324.336 161.720,324.189 160.640,324.000 160.200 L 323.656 159.400 323.651 160.200 M75.849 160.615 C 75.712 160.973,75.621 162.016,75.647 162.933 C 75.693 164.584,75.697 164.579,76.052 162.439 C 76.412 160.270,76.315 159.401,75.849 160.615 M181.203 164.690 C 181.207 165.055,183.265 166.069,183.508 165.825 C 183.600 165.734,183.118 165.371,182.437 165.019 C 181.757 164.667,181.201 164.519,181.203 164.690 M187.200 167.784 C 187.200 167.894,187.920 168.351,188.800 168.800 C 189.680 169.249,190.400 169.526,190.400 169.416 C 190.400 169.306,189.680 168.849,188.800 168.400 C 187.920 167.951,187.200 167.674,187.200 167.784 M324.695 173.400 C 324.813 175.600,324.975 177.475,325.055 177.567 C 325.333 177.886,325.103 171.791,324.792 170.600 C 324.619 169.934,324.575 171.179,324.695 173.400 M75.056 171.284 C 74.921 171.788,74.833 173.460,74.860 175.000 L 74.908 177.800 75.251 174.230 C 75.594 170.667,75.520 169.553,75.056 171.284 M215.600 182.551 C 215.600 182.816,220.912 185.622,221.085 185.448 C 221.161 185.373,219.957 184.646,218.411 183.834 C 216.865 183.021,215.600 182.444,215.600 182.551 M223.400 186.800 C 224.060 187.237,224.780 187.595,225.000 187.596 C 225.220 187.596,224.811 187.238,224.090 186.799 C 222.392 185.763,221.836 185.764,223.400 186.800 M242.928 196.942 C 243.632 197.510,243.632 197.543,242.928 197.952 C 242.528 198.185,242.403 198.381,242.651 198.388 C 243.729 198.417,244.074 197.267,243.126 196.806 C 242.275 196.392,242.259 196.403,242.928 196.942 M239.500 199.626 C 238.235 200.279,237.200 200.903,237.200 201.012 C 237.200 201.122,238.280 200.666,239.600 200.000 C 240.920 199.334,242.000 198.701,242.000 198.594 C 242.000 198.328,242.074 198.297,239.500 199.626 M232.100 203.344 C 231.605 203.589,231.200 203.933,231.200 204.109 C 231.200 204.414,231.898 204.103,233.200 203.220 C 233.981 202.689,233.256 202.772,232.100 203.344 M206.300 216.826 C 205.035 217.479,204.000 218.103,204.000 218.212 C 204.000 218.322,205.080 217.866,206.400 217.200 C 207.720 216.534,208.800 215.901,208.800 215.794 C 208.800 215.528,208.874 215.497,206.300 216.826 M197.200 221.633 L 196.200 222.448 197.500 221.814 C 198.215 221.465,198.800 221.094,198.800 220.990 C 198.800 220.592,198.163 220.848,197.200 221.633 M74.828 225.233 C 74.844 226.865,75.013 228.560,75.205 229.000 C 75.417 229.485,75.463 228.384,75.322 226.200 C 75.034 221.751,74.791 221.274,74.828 225.233 M324.875 224.200 C 324.830 225.300,324.707 227.190,324.603 228.400 C 324.419 230.527,324.426 230.547,324.821 229.000 C 325.046 228.120,325.169 226.230,325.094 224.800 C 324.972 222.500,324.947 222.431,324.875 224.200 M174.700 233.226 C 173.435 233.879,172.400 234.503,172.400 234.612 C 172.400 234.722,173.480 234.266,174.800 233.600 C 176.120 232.934,177.200 232.301,177.200 232.194 C 177.200 231.928,177.274 231.897,174.700 233.226 M75.606 237.033 C 75.609 238.115,75.791 239.270,76.009 239.600 C 76.280 240.011,76.324 239.443,76.147 237.800 C 75.823 234.791,75.598 234.472,75.606 237.033 M323.867 237.947 C 323.698 239.127,323.647 240.181,323.754 240.288 C 324.049 240.582,324.490 237.836,324.322 236.752 C 324.232 236.170,324.055 236.634,323.867 237.947 M76.406 245.433 C 76.409 246.295,76.597 247.270,76.823 247.600 C 77.114 248.026,77.155 247.620,76.965 246.200 C 76.631 243.703,76.398 243.384,76.406 245.433 M323.264 245.050 C 323.229 245.518,323.105 246.507,322.989 247.250 C 322.796 248.486,322.815 248.517,323.208 247.614 C 323.445 247.072,323.568 246.082,323.483 245.414 C 323.391 244.697,323.302 244.548,323.264 245.050 M77.228 251.876 C 77.213 252.358,77.380 252.864,77.600 253.000 C 78.073 253.292,78.073 252.901,77.600 251.800 C 77.269 251.029,77.255 251.031,77.228 251.876 M322.273 252.153 C 322.123 252.545,322.011 253.166,322.025 253.533 C 322.042 253.975,322.181 253.874,322.437 253.234 C 322.649 252.703,322.761 252.082,322.685 251.854 C 322.609 251.627,322.424 251.761,322.273 252.153 M321.400 256.000 C 321.250 256.473,321.217 256.950,321.327 257.060 C 321.437 257.170,321.650 256.873,321.800 256.400 C 321.950 255.927,321.983 255.450,321.873 255.340 C 321.763 255.230,321.550 255.527,321.400 256.000 M320.088 260.878 C 319.647 262.265,318.910 264.345,318.449 265.500 C 317.989 266.655,317.697 267.600,317.800 267.600 C 318.234 267.600,321.378 258.844,321.059 258.526 C 320.965 258.432,320.528 259.490,320.088 260.878 M83.074 269.479 C 83.443 270.485,85.202 273.072,85.191 272.593 C 85.186 272.377,84.830 271.750,84.400 271.200 C 83.970 270.650,83.614 269.986,83.609 269.724 C 83.604 269.462,83.422 269.137,83.205 269.003 C 82.968 268.857,82.915 269.048,83.074 269.479 M315.695 271.023 C 315.203 271.774,314.800 272.523,314.800 272.687 C 314.800 272.851,315.266 272.300,315.836 271.462 C 316.405 270.624,316.808 269.875,316.731 269.798 C 316.654 269.720,316.188 270.272,315.695 271.023 M86.661 274.513 C 87.287 275.235,88.340 276.256,89.000 276.781 C 89.660 277.306,89.216 276.716,88.014 275.468 C 85.608 272.973,84.875 272.455,86.661 274.513 M307.594 279.218 C 307.047 279.639,306.780 279.980,307.000 279.978 C 307.529 279.973,308.991 278.858,308.765 278.631 C 308.668 278.534,308.141 278.798,307.594 279.218 M93.200 279.964 C 93.750 280.414,94.380 280.783,94.600 280.785 C 95.028 280.788,94.305 280.234,93.000 279.560 C 92.469 279.285,92.536 279.421,93.200 279.964 M303.600 281.616 C 302.390 282.258,301.145 282.787,300.833 282.791 C 300.522 282.796,300.381 282.914,300.521 283.054 C 300.817 283.351,302.733 282.609,305.000 281.320 C 307.318 280.001,306.196 280.239,303.600 281.616 M101.600 283.582 C 101.930 283.805,102.545 283.991,102.967 283.994 C 103.990 284.002,103.671 283.773,102.200 283.444 C 101.324 283.248,101.162 283.285,101.600 283.582 M104.600 284.397 C 105.364 284.728,108.314 284.955,107.967 284.656 C 107.875 284.577,106.900 284.409,105.800 284.282 C 104.513 284.133,104.085 284.174,104.600 284.397 M295.600 284.400 C 294.216 284.691,294.214 284.695,295.400 284.741 C 296.060 284.767,296.870 284.613,297.200 284.400 C 297.866 283.970,297.645 283.970,295.600 284.400 M109.000 285.215 C 109.774 285.533,113.904 285.749,113.567 285.454 C 113.475 285.374,112.230 285.213,110.800 285.098 C 109.273 284.974,108.530 285.022,109.000 285.215 M290.600 285.200 L 288.200 285.466 290.400 285.505 C 291.610 285.526,292.960 285.389,293.400 285.200 C 294.292 284.817,294.064 284.817,290.600 285.200 M114.500 285.876 C 114.885 285.976,115.515 285.976,115.900 285.876 C 116.285 285.775,115.970 285.693,115.200 285.693 C 114.430 285.693,114.115 285.775,114.500 285.876 M285.305 285.887 C 285.914 285.979,286.814 285.977,287.305 285.882 C 287.797 285.787,287.300 285.711,286.200 285.714 C 285.100 285.717,284.697 285.795,285.305 285.887 M119.100 286.293 C 120.035 286.377,121.565 286.377,122.500 286.293 C 123.435 286.209,122.670 286.140,120.800 286.140 C 118.930 286.140,118.165 286.209,119.100 286.293 M277.513 286.295 C 278.676 286.376,280.476 286.376,281.513 286.293 C 282.551 286.211,281.600 286.145,279.400 286.146 C 277.200 286.147,276.351 286.214,277.513 286.295 M125.500 286.689 C 126.215 286.778,127.385 286.778,128.100 286.689 C 128.815 286.601,128.230 286.528,126.800 286.528 C 125.370 286.528,124.785 286.601,125.500 286.689 M271.907 286.690 C 272.626 286.779,273.706 286.777,274.307 286.686 C 274.908 286.595,274.320 286.522,273.000 286.524 C 271.680 286.526,271.188 286.601,271.907 286.690 M134.319 287.098 C 136.144 287.172,139.024 287.172,140.719 287.097 C 142.414 287.022,140.920 286.961,137.400 286.962 C 133.880 286.962,132.494 287.024,134.319 287.098 M260.482 287.096 C 261.958 287.173,264.478 287.173,266.082 287.097 C 267.687 287.021,266.480 286.958,263.400 286.958 C 260.320 286.957,259.007 287.019,260.482 287.096 M145.700 287.494 C 146.745 287.576,148.455 287.576,149.500 287.494 C 150.545 287.412,149.690 287.344,147.600 287.344 C 145.510 287.344,144.655 287.412,145.700 287.494 M252.512 287.495 C 253.564 287.577,255.184 287.576,256.112 287.492 C 257.040 287.408,256.180 287.341,254.200 287.342 C 252.220 287.343,251.460 287.412,252.512 287.495 M172.800 288.022 C 177.750 288.173,185.220 288.286,189.400 288.274 L 197.000 288.251 187.400 287.980 C 182.120 287.830,174.650 287.717,170.800 287.727 L 163.800 287.746 172.800 288.022 M215.600 288.000 L 205.400 288.221 214.800 288.257 C 219.970 288.277,227.710 288.170,232.000 288.020 L 239.800 287.746 232.800 287.763 C 228.950 287.772,221.210 287.879,215.600 288.000 " stroke="none" fill="#d6474b" fill-rule="evenodd"></path></g></svg>